<?xml version="1.0" encoding="UTF-8" standalone="no"?>
<!-- Created with Digital by H.Neemann -->
<!-- created: Fri Mar 29 16:58:56 CDT 2019 -->

<svg
   xmlns:svg="http://www.w3.org/2000/svg"
   xmlns="http://www.w3.org/2000/svg"
   width="235.8mm"
   height="131.4mm"
   viewBox="169 -11 1572 876">
<g stroke-linecap="square">
<path d="M 1300,394 L 1300,400" stroke="#000000" stroke-width="2.8" fill="none"/>
<path d="M 800,114 L 800,120" stroke="#000000" stroke-width="2.8" fill="none"/>
<path d="M 800,454 L 800,460" stroke="#000000" stroke-width="2.8" fill="none"/>
<path d="M 1160,680 L 1160,690 L 1160,700" stroke="#000000" stroke-width="2.8" fill="none"/>
<path d="M 1140,680 L 1140,690" stroke="#000000" stroke-width="2.8" fill="none"/>
<path d="M 1120,680 L 1120,690" stroke="#000000" stroke-width="2.8" fill="none"/>
<path d="M 1100,680 L 1100,690" stroke="#000000" stroke-width="2.8" fill="none"/>
<path d="M 1080,680 L 1080,690" stroke="#000000" stroke-width="2.8" fill="none"/>
<path d="M 1060,680 L 1060,690" stroke="#000000" stroke-width="2.8" fill="none"/>
<path d="M 1040,680 L 1040,690" stroke="#000000" stroke-width="2.8" fill="none"/>
<path d="M 1020,680 L 1020,690" stroke="#000000" stroke-width="2.8" fill="none"/>
<path d="M 920,640 L 1160,640 L 1320,640" stroke="#0000b2" stroke-width="2.8" fill="none"/>
<path d="M 620,300 L 620,640 L 800,640 L 820,640" stroke="#0000b2" stroke-width="2.8" fill="none"/>
<path d="M 460,0 L 660,0 L 660,340 L 820,340" stroke="#0000b2" stroke-width="2.8" fill="none"/>
<path d="M 920,580 L 1100,580 L 1320,580" stroke="#0000b2" stroke-width="2.8" fill="none"/>
<path d="M 460,580 L 480,580 L 480,600 L 820,600" stroke="#0000b2" stroke-width="2.8" fill="none"/>
<path d="M 280,580 L 300,580" stroke="#0000b2" stroke-width="2.8" fill="none"/>
<path d="M 1420,580 L 1440,580" stroke="#0000b2" stroke-width="2.8" fill="none"/>
<path d="M 920,260 L 1040,260 L 1340,260" stroke="#0000b2" stroke-width="2.8" fill="none"/>
<path d="M 760,460 L 760,520 L 820,520" stroke="#0000b2" stroke-width="2.8" fill="none"/>
<path d="M 1260,500 L 1260,520 L 1320,520" stroke="#0000b2" stroke-width="2.8" fill="none"/>
<path d="M 1620,520 L 1640,520" stroke="#0000b2" stroke-width="2.8" fill="none"/>
<path d="M 1420,520 L 1440,520" stroke="#0000b2" stroke-width="2.8" fill="none"/>
<path d="M 460,460 L 540,460 L 540,540 L 820,540" stroke="#0000b2" stroke-width="2.8" fill="none"/>
<path d="M 1420,460 L 1460,460 L 1460,80 L 460,80" stroke="#0000b2" stroke-width="2.8" fill="none"/>
<path d="M 1300,440 L 1300,460 L 1320,460" stroke="#0000b2" stroke-width="2.8" fill="none"/>
<path d="M 280,460 L 300,460" stroke="#0000b2" stroke-width="2.8" fill="none"/>
<path d="M 460,340 L 500,340 L 500,220 L 820,220" stroke="#0000b2" stroke-width="2.8" fill="none"/>
<path d="M 280,340 L 300,340" stroke="#0000b2" stroke-width="2.8" fill="none"/>
<path d="M 640,320 L 640,660 L 820,660" stroke="#0000b2" stroke-width="2.8" fill="none"/>
<path d="M 800,300 L 800,280 L 820,280" stroke="#0000b2" stroke-width="2.8" fill="none"/>
<path d="M 920,280 L 1060,280 L 1360,280" stroke="#0000b2" stroke-width="2.8" fill="none"/>
<path d="M 920,600 L 1120,600 L 1320,600" stroke="#0000b2" stroke-width="2.8" fill="none"/>
<path d="M 1420,600 L 1440,600" stroke="#0000b2" stroke-width="2.8" fill="none"/>
<path d="M 460,540 L 500,540 L 500,580 L 820,580" stroke="#0000b2" stroke-width="2.8" fill="none"/>
<path d="M 1260,520 L 1260,540 L 1320,540" stroke="#0000b2" stroke-width="2.8" fill="none"/>
<path d="M 280,540 L 300,540" stroke="#0000b2" stroke-width="2.8" fill="none"/>
<path d="M 1420,540 L 1440,540" stroke="#0000b2" stroke-width="2.8" fill="none"/>
<path d="M 800,120 L 800,160 L 820,160" stroke="#0000b2" stroke-width="2.8" fill="none"/>
<path d="M 1260,400 L 1260,480 L 1320,480" stroke="#0000b2" stroke-width="2.8" fill="none"/>
<path d="M 1620,480 L 1640,480" stroke="#0000b2" stroke-width="2.8" fill="none"/>
<path d="M 1420,480 L 1440,480" stroke="#0000b2" stroke-width="2.8" fill="none"/>
<path d="M 1160,700 L 1160,740 L 1200,740" stroke="#0000b2" stroke-width="2.8" fill="none"/>
<path d="M 460,420 L 540,420 L 540,260 L 820,260" stroke="#0000b2" stroke-width="2.8" fill="none"/>
<path d="M 280,420 L 300,420" stroke="#0000b2" stroke-width="2.8" fill="none"/>
<path d="M 460,40 L 640,40 L 640,320 L 820,320" stroke="#0000b2" stroke-width="2.8" fill="none"/>
<path d="M 660,340 L 660,680 L 820,680" stroke="#0000b2" stroke-width="2.8" fill="none"/>
<path d="M 920,620 L 1140,620 L 1320,620" stroke="#0000b2" stroke-width="2.8" fill="none"/>
<path d="M 800,640 L 800,620 L 820,620" stroke="#0000b2" stroke-width="2.8" fill="none"/>
<path d="M 1420,620 L 1440,620" stroke="#0000b2" stroke-width="2.8" fill="none"/>
<path d="M 460,300 L 480,300 L 480,200 L 820,200" stroke="#0000b2" stroke-width="2.8" fill="none"/>
<path d="M 920,300 L 1080,300 L 1380,300" stroke="#0000b2" stroke-width="2.8" fill="none"/>
<path d="M 280,300 L 300,300" stroke="#0000b2" stroke-width="2.8" fill="none"/>
<path d="M 920,240 L 1020,240 L 1320,240" stroke="#0000b2" stroke-width="2.8" fill="none"/>
<path d="M 1620,560 L 1640,560" stroke="#0000b2" stroke-width="2.8" fill="none"/>
<path d="M 1260,540 L 1260,560 L 1320,560" stroke="#0000b2" stroke-width="2.8" fill="none"/>
<path d="M 1420,560 L 1440,560" stroke="#0000b2" stroke-width="2.8" fill="none"/>
<path d="M 460,500 L 520,500 L 520,560 L 820,560" stroke="#0000b2" stroke-width="2.8" fill="none"/>
<path d="M 800,460 L 800,500 L 820,500" stroke="#0000b2" stroke-width="2.8" fill="none"/>
<path d="M 1260,480 L 1260,500 L 1320,500" stroke="#0000b2" stroke-width="2.8" fill="none"/>
<path d="M 280,500 L 300,500" stroke="#0000b2" stroke-width="2.8" fill="none"/>
<path d="M 1420,500 L 1440,500" stroke="#0000b2" stroke-width="2.8" fill="none"/>
<path d="M 760,120 L 760,180 L 820,180" stroke="#0000b2" stroke-width="2.8" fill="none"/>
<path d="M 1620,440 L 1640,440" stroke="#0000b2" stroke-width="2.8" fill="none"/>
<path d="M 1300,400 L 1300,440 L 1320,440" stroke="#0000b2" stroke-width="2.8" fill="none"/>
<path d="M 460,120 L 620,120 L 620,300 L 800,300 L 820,300" stroke="#0000b2" stroke-width="2.8" fill="none"/>
<path d="M 1620,380 L 1640,380" stroke="#0000b2" stroke-width="2.8" fill="none"/>
<path d="M 460,380 L 520,380 L 520,240 L 820,240" stroke="#0000b2" stroke-width="2.8" fill="none"/>
<path d="M 280,380 L 300,380" stroke="#0000b2" stroke-width="2.8" fill="none"/>
<path d="M 820,360 L 800,360 L 800,380 L 820,380" stroke="#0000b2" stroke-width="2.8" fill="none"/>
<path d="M 820,720 L 800,720 L 800,700 L 820,700" stroke="#0000b2" stroke-width="2.8" fill="none"/>
<path d="M 800,380 L 800,420" stroke="#0000b2" stroke-width="2.8" fill="none"/>
<path d="M 800,720 L 800,760" stroke="#0000b2" stroke-width="2.8" fill="none"/>
<path d="M 1120,600 L 1120,680" stroke="#0000b2" stroke-width="2.8" fill="none"/>
<path d="M 1060,280 L 1060,680" stroke="#0000b2" stroke-width="2.8" fill="none"/>
<path d="M 1380,760 L 1380,780" stroke="#0000b2" stroke-width="2.8" fill="none"/>
<path d="M 1160,640 L 1160,680" stroke="#0000b2" stroke-width="2.8" fill="none"/>
<path d="M 1100,580 L 1100,680" stroke="#0000b2" stroke-width="2.8" fill="none"/>
<path d="M 1420,760 L 1420,780" stroke="#0000b2" stroke-width="2.8" fill="none"/>
<path d="M 1040,260 L 1040,680" stroke="#0000b2" stroke-width="2.8" fill="none"/>
<path d="M 1460,760 L 1460,780" stroke="#0000b2" stroke-width="2.8" fill="none"/>
<path d="M 1140,620 L 1140,680" stroke="#0000b2" stroke-width="2.8" fill="none"/>
<path d="M 1080,300 L 1080,680" stroke="#0000b2" stroke-width="2.8" fill="none"/>
<path d="M 1340,760 L 1340,780" stroke="#0000b2" stroke-width="2.8" fill="none"/>
<path d="M 1020,240 L 1020,680" stroke="#0000b2" stroke-width="2.8" fill="none"/>
<path d="M 790,420 L 810,420" stroke="#000000" stroke-width="4.199999999999999" fill="none"/>
<path d="M 790,760 L 810,760" stroke="#000000" stroke-width="4.199999999999999" fill="none"/>
<path d="M 1250,400 L 1270,400" stroke="#000000" stroke-width="4.199999999999999" fill="none"/>
<path d="M 750,120 L 770,120" stroke="#000000" stroke-width="4.199999999999999" fill="none"/>
<path d="M 750,460 L 770,460" stroke="#000000" stroke-width="4.199999999999999" fill="none"/>
<g>
<circle cx="1160.0" cy="640.0" r="4.0" stroke="#0000b2" stroke-width="2.8" fill="#0000b2" />
<circle cx="800.0" cy="640.0" r="4.0" stroke="#0000b2" stroke-width="2.8" fill="#0000b2" />
<circle cx="640.0" cy="320.0" r="4.0" stroke="#0000b2" stroke-width="2.8" fill="#0000b2" />
<circle cx="1100.0" cy="580.0" r="4.0" stroke="#0000b2" stroke-width="2.8" fill="#0000b2" />
<circle cx="1040.0" cy="260.0" r="4.0" stroke="#0000b2" stroke-width="2.8" fill="#0000b2" />
<circle cx="1260.0" cy="520.0" r="4.0" stroke="#0000b2" stroke-width="2.8" fill="#0000b2" />
<circle cx="800.0" cy="720.0" r="4.0" stroke="#0000b2" stroke-width="2.8" fill="#0000b2" />
<circle cx="660.0" cy="340.0" r="4.0" stroke="#0000b2" stroke-width="2.8" fill="#0000b2" />
<circle cx="1060.0" cy="280.0" r="4.0" stroke="#0000b2" stroke-width="2.8" fill="#0000b2" />
<circle cx="1120.0" cy="600.0" r="4.0" stroke="#0000b2" stroke-width="2.8" fill="#0000b2" />
<circle cx="1260.0" cy="540.0" r="4.0" stroke="#0000b2" stroke-width="2.8" fill="#0000b2" />
<circle cx="1260.0" cy="480.0" r="4.0" stroke="#0000b2" stroke-width="2.8" fill="#0000b2" />
<circle cx="1140.0" cy="620.0" r="4.0" stroke="#0000b2" stroke-width="2.8" fill="#0000b2" />
<circle cx="620.0" cy="300.0" r="4.0" stroke="#0000b2" stroke-width="2.8" fill="#0000b2" />
<circle cx="800.0" cy="300.0" r="4.0" stroke="#0000b2" stroke-width="2.8" fill="#0000b2" />
<circle cx="1080.0" cy="300.0" r="4.0" stroke="#0000b2" stroke-width="2.8" fill="#0000b2" />
<circle cx="1020.0" cy="240.0" r="4.0" stroke="#0000b2" stroke-width="2.8" fill="#0000b2" />
<circle cx="1260.0" cy="500.0" r="4.0" stroke="#0000b2" stroke-width="2.8" fill="#0000b2" />
<circle cx="1300.0" cy="440.0" r="4.0" stroke="#0000b2" stroke-width="2.8" fill="#0000b2" />
<circle cx="800.0" cy="380.0" r="4.0" stroke="#0000b2" stroke-width="2.8" fill="#0000b2" />
</g>
<g>
<path d="M 1320,420 L 1420,420 L 1420,660 L 1320,660 Z" stroke="#ffffa6" stroke-width="0.0" fill="#ffffa6" fill-opacity="0.8666666666666667"/>
<path d="M 1320,420 L 1420,420 L 1420,660 L 1320,660 Z" stroke="#000000" stroke-width="2.8" fill="none"/>
<text text-anchor="middle" x="1370.0" y="416.0" fill="#000000" style="font-size:24">74245</text>
<text text-anchor="start" x="1324.0" y="446.75" fill="#808080" style="font-size:18">DIR</text>
<text text-anchor="start" x="1324.0" y="466.75" fill="#808080" style="font-size:18">VCC</text>
<text text-anchor="start" x="1324.0" y="486.75" fill="#808080" style="font-size:18">GND</text>
<text text-anchor="start" x="1324.0" y="506.75" fill="#808080" style="font-size:18">A1</text>
<text text-anchor="start" x="1324.0" y="526.75" fill="#808080" style="font-size:18">A2</text>
<text text-anchor="start" x="1324.0" y="546.75" fill="#808080" style="font-size:18">A3</text>
<text text-anchor="start" x="1324.0" y="566.75" fill="#808080" style="font-size:18">A4</text>
<text text-anchor="start" x="1324.0" y="586.75" fill="#808080" style="font-size:18">A5</text>
<text text-anchor="start" x="1324.0" y="606.75" fill="#808080" style="font-size:18">A6</text>
<text text-anchor="start" x="1324.0" y="626.75" fill="#808080" style="font-size:18">A7</text>
<text text-anchor="start" x="1324.0" y="646.75" fill="#808080" style="font-size:18">A8</text>
<text text-anchor="end" x="1416.0" y="466.75" fill="#808080" style="font-size:18">¬OE</text>
<text text-anchor="end" x="1416.0" y="486.75" fill="#808080" style="font-size:18">B1</text>
<text text-anchor="end" x="1416.0" y="506.75" fill="#808080" style="font-size:18">B2</text>
<text text-anchor="end" x="1416.0" y="526.75" fill="#808080" style="font-size:18">B3</text>
<text text-anchor="end" x="1416.0" y="546.75" fill="#808080" style="font-size:18">B4</text>
<text text-anchor="end" x="1416.0" y="566.75" fill="#808080" style="font-size:18">B5</text>
<text text-anchor="end" x="1416.0" y="586.75" fill="#808080" style="font-size:18">B6</text>
<text text-anchor="end" x="1416.0" y="606.75" fill="#808080" style="font-size:18">B7</text>
<text text-anchor="end" x="1416.0" y="626.75" fill="#808080" style="font-size:18">B8</text>
<circle cx="1320.0" cy="440.0" r="2.0" stroke="#0000b2" stroke-width="2.8" fill="#0000b2" />
<circle cx="1420.0" cy="460.0" r="2.0" stroke="#0000b2" stroke-width="2.8" fill="#0000b2" />
<circle cx="1320.0" cy="500.0" r="2.0" stroke="#0000b2" stroke-width="2.8" fill="#0000b2" />
<circle cx="1420.0" cy="480.0" r="2.0" stroke="#0000b2" stroke-width="2.8" fill="#0000b2" />
<circle cx="1320.0" cy="520.0" r="2.0" stroke="#0000b2" stroke-width="2.8" fill="#0000b2" />
<circle cx="1420.0" cy="500.0" r="2.0" stroke="#0000b2" stroke-width="2.8" fill="#0000b2" />
<circle cx="1320.0" cy="540.0" r="2.0" stroke="#0000b2" stroke-width="2.8" fill="#0000b2" />
<circle cx="1420.0" cy="520.0" r="2.0" stroke="#0000b2" stroke-width="2.8" fill="#0000b2" />
<circle cx="1320.0" cy="560.0" r="2.0" stroke="#0000b2" stroke-width="2.8" fill="#0000b2" />
<circle cx="1420.0" cy="540.0" r="2.0" stroke="#0000b2" stroke-width="2.8" fill="#0000b2" />
<circle cx="1320.0" cy="580.0" r="2.0" stroke="#0000b2" stroke-width="2.8" fill="#0000b2" />
<circle cx="1420.0" cy="560.0" r="2.0" stroke="#0000b2" stroke-width="2.8" fill="#0000b2" />
<circle cx="1320.0" cy="600.0" r="2.0" stroke="#0000b2" stroke-width="2.8" fill="#0000b2" />
<circle cx="1420.0" cy="580.0" r="2.0" stroke="#0000b2" stroke-width="2.8" fill="#0000b2" />
<circle cx="1320.0" cy="620.0" r="2.0" stroke="#0000b2" stroke-width="2.8" fill="#0000b2" />
<circle cx="1420.0" cy="600.0" r="2.0" stroke="#0000b2" stroke-width="2.8" fill="#0000b2" />
<circle cx="1320.0" cy="640.0" r="2.0" stroke="#0000b2" stroke-width="2.8" fill="#0000b2" />
<circle cx="1420.0" cy="620.0" r="2.0" stroke="#0000b2" stroke-width="2.8" fill="#0000b2" />
<circle cx="1320.0" cy="460.0" r="2.0" stroke="#0000b2" stroke-width="2.8" fill="#0000b2" />
<circle cx="1320.0" cy="480.0" r="2.0" stroke="#0000b2" stroke-width="2.8" fill="#0000b2" />
</g>
<g>
<path d="M 820,140 L 920,140 L 920,400 L 820,400 Z" stroke="#ffffb4" stroke-width="0.0" fill="#ffffb4" fill-opacity="0.7843137254901961"/>
<path d="M 820,140 L 920,140 L 920,400 L 820,400 Z" stroke="#000000" stroke-width="2.8" fill="none"/>
<text text-anchor="middle" x="870.0" y="136.0" fill="#000000" style="font-size:24">74173</text>
<text text-anchor="start" x="824.0" y="166.75" fill="#808080" style="font-size:18">VCC</text>
<text text-anchor="start" x="824.0" y="186.75" fill="#808080" style="font-size:18">GND</text>
<text text-anchor="start" x="824.0" y="206.75" fill="#808080" style="font-size:18">D0</text>
<text text-anchor="start" x="824.0" y="226.75" fill="#808080" style="font-size:18">D1</text>
<text text-anchor="start" x="824.0" y="246.75" fill="#808080" style="font-size:18">D2</text>
<text text-anchor="start" x="824.0" y="266.75" fill="#808080" style="font-size:18">D3</text>
<text text-anchor="start" x="824.0" y="286.75" fill="#808080" style="font-size:18">DE1</text>
<text text-anchor="start" x="824.0" y="306.75" fill="#808080" style="font-size:18">DE2</text>
<text text-anchor="start" x="824.0" y="326.75" fill="#808080" style="font-size:18">CLK</text>
<text text-anchor="start" x="824.0" y="346.75" fill="#808080" style="font-size:18">RES</text>
<text text-anchor="start" x="824.0" y="366.75" fill="#808080" style="font-size:18">OE1</text>
<text text-anchor="start" x="824.0" y="386.75" fill="#808080" style="font-size:18">OE2</text>
<text text-anchor="end" x="916.0" y="246.75" fill="#808080" style="font-size:18">Q0</text>
<text text-anchor="end" x="916.0" y="266.75" fill="#808080" style="font-size:18">Q1</text>
<text text-anchor="end" x="916.0" y="286.75" fill="#808080" style="font-size:18">Q2</text>
<text text-anchor="end" x="916.0" y="306.75" fill="#808080" style="font-size:18">Q3</text>
<circle cx="820.0" cy="200.0" r="2.0" stroke="#0000b2" stroke-width="2.8" fill="#0000b2" />
<circle cx="820.0" cy="160.0" r="2.0" stroke="#0000b2" stroke-width="2.8" fill="#0000b2" />
<circle cx="820.0" cy="180.0" r="2.0" stroke="#0000b2" stroke-width="2.8" fill="#0000b2" />
<circle cx="820.0" cy="340.0" r="2.0" stroke="#0000b2" stroke-width="2.8" fill="#0000b2" />
<circle cx="820.0" cy="220.0" r="2.0" stroke="#0000b2" stroke-width="2.8" fill="#0000b2" />
<circle cx="820.0" cy="240.0" r="2.0" stroke="#0000b2" stroke-width="2.8" fill="#0000b2" />
<circle cx="820.0" cy="260.0" r="2.0" stroke="#0000b2" stroke-width="2.8" fill="#0000b2" />
<circle cx="820.0" cy="320.0" r="2.0" stroke="#0000b2" stroke-width="2.8" fill="#0000b2" />
<circle cx="820.0" cy="280.0" r="2.0" stroke="#0000b2" stroke-width="2.8" fill="#0000b2" />
<circle cx="820.0" cy="300.0" r="2.0" stroke="#0000b2" stroke-width="2.8" fill="#0000b2" />
<circle cx="820.0" cy="360.0" r="2.0" stroke="#0000b2" stroke-width="2.8" fill="#0000b2" />
<circle cx="820.0" cy="380.0" r="2.0" stroke="#0000b2" stroke-width="2.8" fill="#0000b2" />
<circle cx="920.0" cy="240.0" r="2.0" stroke="#b20000" stroke-width="2.8" fill="#b20000" />
<circle cx="920.0" cy="260.0" r="2.0" stroke="#b20000" stroke-width="2.8" fill="#b20000" />
<circle cx="920.0" cy="280.0" r="2.0" stroke="#b20000" stroke-width="2.8" fill="#b20000" />
<circle cx="920.0" cy="300.0" r="2.0" stroke="#b20000" stroke-width="2.8" fill="#b20000" />
</g>
<g>
<path d="M 820,480 L 920,480 L 920,740 L 820,740 Z" stroke="#ffffb4" stroke-width="0.0" fill="#ffffb4" fill-opacity="0.7843137254901961"/>
<path d="M 820,480 L 920,480 L 920,740 L 820,740 Z" stroke="#000000" stroke-width="2.8" fill="none"/>
<text text-anchor="middle" x="870.0" y="476.0" fill="#000000" style="font-size:24">74173</text>
<text text-anchor="start" x="824.0" y="506.75" fill="#808080" style="font-size:18">VCC</text>
<text text-anchor="start" x="824.0" y="526.75" fill="#808080" style="font-size:18">GND</text>
<text text-anchor="start" x="824.0" y="546.75" fill="#808080" style="font-size:18">D0</text>
<text text-anchor="start" x="824.0" y="566.75" fill="#808080" style="font-size:18">D1</text>
<text text-anchor="start" x="824.0" y="586.75" fill="#808080" style="font-size:18">D2</text>
<text text-anchor="start" x="824.0" y="606.75" fill="#808080" style="font-size:18">D3</text>
<text text-anchor="start" x="824.0" y="626.75" fill="#808080" style="font-size:18">DE1</text>
<text text-anchor="start" x="824.0" y="646.75" fill="#808080" style="font-size:18">DE2</text>
<text text-anchor="start" x="824.0" y="666.75" fill="#808080" style="font-size:18">CLK</text>
<text text-anchor="start" x="824.0" y="686.75" fill="#808080" style="font-size:18">RES</text>
<text text-anchor="start" x="824.0" y="706.75" fill="#808080" style="font-size:18">OE1</text>
<text text-anchor="start" x="824.0" y="726.75" fill="#808080" style="font-size:18">OE2</text>
<text text-anchor="end" x="916.0" y="586.75" fill="#808080" style="font-size:18">Q0</text>
<text text-anchor="end" x="916.0" y="606.75" fill="#808080" style="font-size:18">Q1</text>
<text text-anchor="end" x="916.0" y="626.75" fill="#808080" style="font-size:18">Q2</text>
<text text-anchor="end" x="916.0" y="646.75" fill="#808080" style="font-size:18">Q3</text>
<circle cx="820.0" cy="540.0" r="2.0" stroke="#0000b2" stroke-width="2.8" fill="#0000b2" />
<circle cx="820.0" cy="500.0" r="2.0" stroke="#0000b2" stroke-width="2.8" fill="#0000b2" />
<circle cx="820.0" cy="520.0" r="2.0" stroke="#0000b2" stroke-width="2.8" fill="#0000b2" />
<circle cx="820.0" cy="680.0" r="2.0" stroke="#0000b2" stroke-width="2.8" fill="#0000b2" />
<circle cx="820.0" cy="560.0" r="2.0" stroke="#0000b2" stroke-width="2.8" fill="#0000b2" />
<circle cx="820.0" cy="580.0" r="2.0" stroke="#0000b2" stroke-width="2.8" fill="#0000b2" />
<circle cx="820.0" cy="600.0" r="2.0" stroke="#0000b2" stroke-width="2.8" fill="#0000b2" />
<circle cx="820.0" cy="660.0" r="2.0" stroke="#0000b2" stroke-width="2.8" fill="#0000b2" />
<circle cx="820.0" cy="620.0" r="2.0" stroke="#0000b2" stroke-width="2.8" fill="#0000b2" />
<circle cx="820.0" cy="640.0" r="2.0" stroke="#0000b2" stroke-width="2.8" fill="#0000b2" />
<circle cx="820.0" cy="700.0" r="2.0" stroke="#0000b2" stroke-width="2.8" fill="#0000b2" />
<circle cx="820.0" cy="720.0" r="2.0" stroke="#0000b2" stroke-width="2.8" fill="#0000b2" />
<circle cx="920.0" cy="580.0" r="2.0" stroke="#b20000" stroke-width="2.8" fill="#b20000" />
<circle cx="920.0" cy="600.0" r="2.0" stroke="#b20000" stroke-width="2.8" fill="#b20000" />
<circle cx="920.0" cy="620.0" r="2.0" stroke="#b20000" stroke-width="2.8" fill="#b20000" />
<circle cx="920.0" cy="640.0" r="2.0" stroke="#b20000" stroke-width="2.8" fill="#b20000" />
</g>
<g>
<path d="M 249,285 L 279,285 L 279,315 L 249,315 Z" stroke="#000000" stroke-width="2.8" fill="none"/>
<circle cx="264.0" cy="300.0" r="9.0" stroke="#000000" stroke-width="2.8" fill="none" />
<text text-anchor="end" x="235.0" y="309.0" fill="#000000" style="font-size:24"><tspan style="font-style:italic">BUS<tspan style="font-size:80%;baseline-shift:sub">0</tspan></tspan></text>
<circle cx="280.0" cy="300.0" r="2.0" stroke="#b20000" stroke-width="2.8" fill="#b20000" />
</g>
<g>
<path d="M 249,325 L 279,325 L 279,355 L 249,355 Z" stroke="#000000" stroke-width="2.8" fill="none"/>
<circle cx="264.0" cy="340.0" r="9.0" stroke="#000000" stroke-width="2.8" fill="none" />
<text text-anchor="end" x="235.0" y="349.0" fill="#000000" style="font-size:24"><tspan style="font-style:italic">BUS<tspan style="font-size:80%;baseline-shift:sub">1</tspan></tspan></text>
<circle cx="280.0" cy="340.0" r="2.0" stroke="#b20000" stroke-width="2.8" fill="#b20000" />
</g>
<g>
<path d="M 249,365 L 279,365 L 279,395 L 249,395 Z" stroke="#000000" stroke-width="2.8" fill="none"/>
<circle cx="264.0" cy="380.0" r="9.0" stroke="#000000" stroke-width="2.8" fill="none" />
<text text-anchor="end" x="235.0" y="389.0" fill="#000000" style="font-size:24"><tspan style="font-style:italic">BUS<tspan style="font-size:80%;baseline-shift:sub">2</tspan></tspan></text>
<circle cx="280.0" cy="380.0" r="2.0" stroke="#b20000" stroke-width="2.8" fill="#b20000" />
</g>
<g>
<path d="M 249,405 L 279,405 L 279,435 L 249,435 Z" stroke="#000000" stroke-width="2.8" fill="none"/>
<circle cx="264.0" cy="420.0" r="9.0" stroke="#000000" stroke-width="2.8" fill="none" />
<text text-anchor="end" x="235.0" y="429.0" fill="#000000" style="font-size:24"><tspan style="font-style:italic">BUS<tspan style="font-size:80%;baseline-shift:sub">3</tspan></tspan></text>
<circle cx="280.0" cy="420.0" r="2.0" stroke="#b20000" stroke-width="2.8" fill="#b20000" />
</g>
<g>
<path d="M 249,445 L 279,445 L 279,475 L 249,475 Z" stroke="#000000" stroke-width="2.8" fill="none"/>
<circle cx="264.0" cy="460.0" r="9.0" stroke="#000000" stroke-width="2.8" fill="none" />
<text text-anchor="end" x="235.0" y="469.0" fill="#000000" style="font-size:24"><tspan style="font-style:italic">BUS<tspan style="font-size:80%;baseline-shift:sub">4</tspan></tspan></text>
<circle cx="280.0" cy="460.0" r="2.0" stroke="#b20000" stroke-width="2.8" fill="#b20000" />
</g>
<g>
<path d="M 249,485 L 279,485 L 279,515 L 249,515 Z" stroke="#000000" stroke-width="2.8" fill="none"/>
<circle cx="264.0" cy="500.0" r="9.0" stroke="#000000" stroke-width="2.8" fill="none" />
<text text-anchor="end" x="235.0" y="509.0" fill="#000000" style="font-size:24"><tspan style="font-style:italic">BUS<tspan style="font-size:80%;baseline-shift:sub">5</tspan></tspan></text>
<circle cx="280.0" cy="500.0" r="2.0" stroke="#b20000" stroke-width="2.8" fill="#b20000" />
</g>
<g>
<path d="M 249,525 L 279,525 L 279,555 L 249,555 Z" stroke="#000000" stroke-width="2.8" fill="none"/>
<circle cx="264.0" cy="540.0" r="9.0" stroke="#000000" stroke-width="2.8" fill="none" />
<text text-anchor="end" x="235.0" y="549.0" fill="#000000" style="font-size:24"><tspan style="font-style:italic">BUS<tspan style="font-size:80%;baseline-shift:sub">6</tspan></tspan></text>
<circle cx="280.0" cy="540.0" r="2.0" stroke="#b20000" stroke-width="2.8" fill="#b20000" />
</g>
<g>
<path d="M 249,565 L 279,565 L 279,595 L 249,595 Z" stroke="#000000" stroke-width="2.8" fill="none"/>
<circle cx="264.0" cy="580.0" r="9.0" stroke="#000000" stroke-width="2.8" fill="none" />
<text text-anchor="end" x="235.0" y="589.0" fill="#000000" style="font-size:24"><tspan style="font-style:italic">BUS<tspan style="font-size:80%;baseline-shift:sub">7</tspan></tspan></text>
<circle cx="280.0" cy="580.0" r="2.0" stroke="#b20000" stroke-width="2.8" fill="#b20000" />
</g>
<g>
<path d="M 1671,495 L 1641,495 L 1641,465 L 1671,465 Z" stroke="#000000" stroke-width="2.8" fill="none"/>
<circle cx="1656.0" cy="480.0" r="9.0" stroke="#000000" stroke-width="2.8" fill="none" />
<text text-anchor="start" x="1685.0" y="489.0" fill="#000000" style="font-size:24"><tspan style="font-style:italic">¬IO</tspan></text>
<circle cx="1640.0" cy="480.0" r="2.0" stroke="#b20000" stroke-width="2.8" fill="#b20000" />
</g>
<g>
<path d="M 1671,455 L 1641,455 L 1641,425 L 1671,425 Z" stroke="#000000" stroke-width="2.8" fill="none"/>
<circle cx="1656.0" cy="440.0" r="9.0" stroke="#000000" stroke-width="2.8" fill="none" />
<text text-anchor="start" x="1685.0" y="449.0" fill="#000000" style="font-size:24"><tspan style="font-style:italic">¬II</tspan></text>
<circle cx="1640.0" cy="440.0" r="2.0" stroke="#b20000" stroke-width="2.8" fill="#b20000" />
</g>
<g>
<circle cx="800.0" cy="420.0" r="2.0" stroke="#b20000" stroke-width="2.8" fill="#b20000" />
</g>
<g>
<circle cx="800.0" cy="760.0" r="2.0" stroke="#b20000" stroke-width="2.8" fill="#b20000" />
</g>
<g>
<path d="M 1290,404 L 1300,391 L 1310,404" stroke="#000000" stroke-width="2.8" fill="none"/>
<circle cx="1300.0" cy="400.0" r="2.0" stroke="#b20000" stroke-width="2.8" fill="#b20000" />
</g>
<g>
<circle cx="1260.0" cy="400.0" r="2.0" stroke="#b20000" stroke-width="2.8" fill="#b20000" />
</g>
<g>
<path d="M 790,124 L 800,111 L 810,124" stroke="#000000" stroke-width="2.8" fill="none"/>
<circle cx="800.0" cy="120.0" r="2.0" stroke="#b20000" stroke-width="2.8" fill="#b20000" />
</g>
<g>
<circle cx="760.0" cy="120.0" r="2.0" stroke="#b20000" stroke-width="2.8" fill="#b20000" />
</g>
<g>
<path d="M 790,464 L 800,451 L 810,464" stroke="#000000" stroke-width="2.8" fill="none"/>
<circle cx="800.0" cy="460.0" r="2.0" stroke="#b20000" stroke-width="2.8" fill="#b20000" />
</g>
<g>
<circle cx="760.0" cy="460.0" r="2.0" stroke="#b20000" stroke-width="2.8" fill="#b20000" />
</g>
<g>
<circle cx="1460.0" cy="796.0" r="9.0" stroke="#000000" stroke-width="2.8" fill="none" />
<circle cx="1460.0" cy="796.0" r="15.0" stroke="#000000" stroke-width="2.8" fill="none" />
<text text-anchor="end" x="1460.0" y="834.0" fill="#000000" style="font-size:24" transform="rotate(-90,1460.0,825.0)" ><tspan style="font-style:italic">IR<tspan style="font-size:80%;baseline-shift:sub">4</tspan></tspan></text>
<circle cx="1460.0" cy="780.0" r="2.0" stroke="#0000b2" stroke-width="2.8" fill="#0000b2" />
</g>
<g>
<circle cx="1420.0" cy="796.0" r="9.0" stroke="#000000" stroke-width="2.8" fill="none" />
<circle cx="1420.0" cy="796.0" r="15.0" stroke="#000000" stroke-width="2.8" fill="none" />
<text text-anchor="end" x="1420.0" y="834.0" fill="#000000" style="font-size:24" transform="rotate(-90,1420.0,825.0)" ><tspan style="font-style:italic">IR<tspan style="font-size:80%;baseline-shift:sub">5</tspan></tspan></text>
<circle cx="1420.0" cy="780.0" r="2.0" stroke="#0000b2" stroke-width="2.8" fill="#0000b2" />
</g>
<g>
<circle cx="1380.0" cy="796.0" r="9.0" stroke="#000000" stroke-width="2.8" fill="none" />
<circle cx="1380.0" cy="796.0" r="15.0" stroke="#000000" stroke-width="2.8" fill="none" />
<text text-anchor="end" x="1380.0" y="834.0" fill="#000000" style="font-size:24" transform="rotate(-90,1380.0,825.0)" ><tspan style="font-style:italic">IR<tspan style="font-size:80%;baseline-shift:sub">6</tspan></tspan></text>
<circle cx="1380.0" cy="780.0" r="2.0" stroke="#0000b2" stroke-width="2.8" fill="#0000b2" />
</g>
<g>
<circle cx="1340.0" cy="796.0" r="9.0" stroke="#000000" stroke-width="2.8" fill="none" />
<circle cx="1340.0" cy="796.0" r="15.0" stroke="#000000" stroke-width="2.8" fill="none" />
<text text-anchor="end" x="1340.0" y="834.0" fill="#000000" style="font-size:24" transform="rotate(-90,1340.0,825.0)" ><tspan style="font-style:italic">IR<tspan style="font-size:80%;baseline-shift:sub">7</tspan></tspan></text>
<circle cx="1340.0" cy="780.0" r="2.0" stroke="#0000b2" stroke-width="2.8" fill="#0000b2" />
</g>
<g>
<path d="M 1440,620 L 1454,628 L 1454,612 Z" stroke="#000000" stroke-width="2.8" fill="none"/>
<text text-anchor="start" x="1459.0" y="626.75" fill="#808080" style="font-size:18">BUS<tspan style="font-size:80%;baseline-shift:sub">0</tspan></text>
<circle cx="1440.0" cy="620.0" r="2.0" stroke="#0000b2" stroke-width="2.8" fill="#0000b2" />
</g>
<g>
<path d="M 1440,600 L 1454,608 L 1454,592 Z" stroke="#000000" stroke-width="2.8" fill="none"/>
<text text-anchor="start" x="1459.0" y="606.75" fill="#808080" style="font-size:18">BUS<tspan style="font-size:80%;baseline-shift:sub">1</tspan></text>
<circle cx="1440.0" cy="600.0" r="2.0" stroke="#0000b2" stroke-width="2.8" fill="#0000b2" />
</g>
<g>
<path d="M 1440,580 L 1454,588 L 1454,572 Z" stroke="#000000" stroke-width="2.8" fill="none"/>
<text text-anchor="start" x="1459.0" y="586.75" fill="#808080" style="font-size:18">BUS<tspan style="font-size:80%;baseline-shift:sub">2</tspan></text>
<circle cx="1440.0" cy="580.0" r="2.0" stroke="#0000b2" stroke-width="2.8" fill="#0000b2" />
</g>
<g>
<path d="M 1440,560 L 1454,568 L 1454,552 Z" stroke="#000000" stroke-width="2.8" fill="none"/>
<text text-anchor="start" x="1459.0" y="566.75" fill="#808080" style="font-size:18">BUS<tspan style="font-size:80%;baseline-shift:sub">3</tspan></text>
<circle cx="1440.0" cy="560.0" r="2.0" stroke="#0000b2" stroke-width="2.8" fill="#0000b2" />
</g>
<g>
<path d="M 1440,540 L 1454,548 L 1454,532 Z" stroke="#000000" stroke-width="2.8" fill="none"/>
<text text-anchor="start" x="1459.0" y="546.75" fill="#808080" style="font-size:18">BUS<tspan style="font-size:80%;baseline-shift:sub">4</tspan></text>
<circle cx="1440.0" cy="540.0" r="2.0" stroke="#0000b2" stroke-width="2.8" fill="#0000b2" />
</g>
<g>
<path d="M 1440,520 L 1454,528 L 1454,512 Z" stroke="#000000" stroke-width="2.8" fill="none"/>
<text text-anchor="start" x="1459.0" y="526.75" fill="#808080" style="font-size:18">BUS<tspan style="font-size:80%;baseline-shift:sub">5</tspan></text>
<circle cx="1440.0" cy="520.0" r="2.0" stroke="#0000b2" stroke-width="2.8" fill="#0000b2" />
</g>
<g>
<path d="M 1440,500 L 1454,508 L 1454,492 Z" stroke="#000000" stroke-width="2.8" fill="none"/>
<text text-anchor="start" x="1459.0" y="506.75" fill="#808080" style="font-size:18">BUS<tspan style="font-size:80%;baseline-shift:sub">6</tspan></text>
<circle cx="1440.0" cy="500.0" r="2.0" stroke="#0000b2" stroke-width="2.8" fill="#0000b2" />
</g>
<g>
<path d="M 1440,480 L 1454,488 L 1454,472 Z" stroke="#000000" stroke-width="2.8" fill="none"/>
<text text-anchor="start" x="1459.0" y="486.75" fill="#808080" style="font-size:18">BUS<tspan style="font-size:80%;baseline-shift:sub">7</tspan></text>
<circle cx="1440.0" cy="480.0" r="2.0" stroke="#0000b2" stroke-width="2.8" fill="#0000b2" />
</g>
<g>
<text text-anchor="start" x="1163.0" y="687.0" fill="#808080" style="font-size:12" transform="rotate(-90,1163.0,678.0)" >0</text>
<text text-anchor="start" x="1143.0" y="687.0" fill="#808080" style="font-size:12" transform="rotate(-90,1143.0,678.0)" >1</text>
<text text-anchor="start" x="1123.0" y="687.0" fill="#808080" style="font-size:12" transform="rotate(-90,1123.0,678.0)" >2</text>
<text text-anchor="start" x="1103.0" y="687.0" fill="#808080" style="font-size:12" transform="rotate(-90,1103.0,678.0)" >3</text>
<text text-anchor="start" x="1083.0" y="687.0" fill="#808080" style="font-size:12" transform="rotate(-90,1083.0,678.0)" >4</text>
<text text-anchor="start" x="1063.0" y="687.0" fill="#808080" style="font-size:12" transform="rotate(-90,1063.0,678.0)" >5</text>
<text text-anchor="start" x="1043.0" y="687.0" fill="#808080" style="font-size:12" transform="rotate(-90,1043.0,678.0)" >6</text>
<text text-anchor="start" x="1023.0" y="687.0" fill="#808080" style="font-size:12" transform="rotate(-90,1023.0,678.0)" >7</text>
<text text-anchor="end" x="1163.0" y="711.0" fill="#808080" style="font-size:12" transform="rotate(-90,1163.0,702.0)" >0-7</text>
<path d="M 1162,688 L 1162,692 L 1018,692 L 1018,688 Z" stroke="#000000" stroke-width="2.8" fill="#000000" fill-opacity="1.0"/>
<circle cx="1160.0" cy="680.0" r="2.0" stroke="#0000b2" stroke-width="2.8" fill="#0000b2" />
<circle cx="1140.0" cy="680.0" r="2.0" stroke="#0000b2" stroke-width="2.8" fill="#0000b2" />
<circle cx="1120.0" cy="680.0" r="2.0" stroke="#0000b2" stroke-width="2.8" fill="#0000b2" />
<circle cx="1100.0" cy="680.0" r="2.0" stroke="#0000b2" stroke-width="2.8" fill="#0000b2" />
<circle cx="1080.0" cy="680.0" r="2.0" stroke="#0000b2" stroke-width="2.8" fill="#0000b2" />
<circle cx="1060.0" cy="680.0" r="2.0" stroke="#0000b2" stroke-width="2.8" fill="#0000b2" />
<circle cx="1040.0" cy="680.0" r="2.0" stroke="#0000b2" stroke-width="2.8" fill="#0000b2" />
<circle cx="1020.0" cy="680.0" r="2.0" stroke="#0000b2" stroke-width="2.8" fill="#0000b2" />
<circle cx="1160.0" cy="700.0" r="2.0" stroke="#b20000" stroke-width="2.8" fill="#b20000" />
</g>
<g>
<circle cx="1656.0" cy="380.0" r="9.0" stroke="#000000" stroke-width="2.8" fill="none" />
<circle cx="1656.0" cy="380.0" r="15.0" stroke="#000000" stroke-width="2.8" fill="none" />
<text text-anchor="start" x="1685.0" y="389.0" fill="#000000" style="font-size:24"><tspan style="font-style:italic">DBG</tspan></text>
<circle cx="1640.0" cy="380.0" r="2.0" stroke="#0000b2" stroke-width="2.8" fill="#0000b2" />
</g>
<g>
<path d="M 460,0 L 446,-8 L 446,8 Z" stroke="#000000" stroke-width="2.8" fill="none"/>
<text text-anchor="end" x="441.0" y="6.75" fill="#808080" style="font-size:18">CLR</text>
<circle cx="460.0" cy="0.0" r="2.0" stroke="#0000b2" stroke-width="2.8" fill="#0000b2" />
</g>
<g>
<path d="M 460,40 L 446,32 L 446,48 Z" stroke="#000000" stroke-width="2.8" fill="none"/>
<text text-anchor="end" x="441.0" y="46.75" fill="#808080" style="font-size:18">CLK</text>
<circle cx="460.0" cy="40.0" r="2.0" stroke="#0000b2" stroke-width="2.8" fill="#0000b2" />
</g>
<g>
<path d="M 460,80 L 446,72 L 446,88 Z" stroke="#000000" stroke-width="2.8" fill="none"/>
<text text-anchor="end" x="441.0" y="86.75" fill="#808080" style="font-size:18">¬IO</text>
<circle cx="460.0" cy="80.0" r="2.0" stroke="#0000b2" stroke-width="2.8" fill="#0000b2" />
</g>
<g>
<path d="M 460,120 L 446,112 L 446,128 Z" stroke="#000000" stroke-width="2.8" fill="none"/>
<text text-anchor="end" x="441.0" y="126.75" fill="#808080" style="font-size:18">¬II</text>
<circle cx="460.0" cy="120.0" r="2.0" stroke="#0000b2" stroke-width="2.8" fill="#0000b2" />
</g>
<g>
<path d="M 1620,480 L 1606,472 L 1606,488 Z" stroke="#000000" stroke-width="2.8" fill="none"/>
<text text-anchor="end" x="1601.0" y="486.75" fill="#808080" style="font-size:18">¬IO</text>
<circle cx="1620.0" cy="480.0" r="2.0" stroke="#0000b2" stroke-width="2.8" fill="#0000b2" />
</g>
<g>
<path d="M 1620,440 L 1606,432 L 1606,448 Z" stroke="#000000" stroke-width="2.8" fill="none"/>
<text text-anchor="end" x="1601.0" y="446.75" fill="#808080" style="font-size:18">¬II</text>
<circle cx="1620.0" cy="440.0" r="2.0" stroke="#0000b2" stroke-width="2.8" fill="#0000b2" />
</g>
<g>
<path d="M 1671,535 L 1641,535 L 1641,505 L 1671,505 Z" stroke="#000000" stroke-width="2.8" fill="none"/>
<circle cx="1656.0" cy="520.0" r="9.0" stroke="#000000" stroke-width="2.8" fill="none" />
<text text-anchor="start" x="1685.0" y="529.0" fill="#000000" style="font-size:24"><tspan style="font-style:italic">CLR</tspan></text>
<circle cx="1640.0" cy="520.0" r="2.0" stroke="#b20000" stroke-width="2.8" fill="#b20000" />
</g>
<g>
<path d="M 1620,520 L 1606,512 L 1606,528 Z" stroke="#000000" stroke-width="2.8" fill="none"/>
<text text-anchor="end" x="1601.0" y="526.75" fill="#808080" style="font-size:18">CLR</text>
<circle cx="1620.0" cy="520.0" r="2.0" stroke="#0000b2" stroke-width="2.8" fill="#0000b2" />
</g>
<g>
<path d="M 1620,560 L 1606,552 L 1606,568 Z" stroke="#000000" stroke-width="2.8" fill="none"/>
<text text-anchor="end" x="1601.0" y="566.75" fill="#808080" style="font-size:18">CLK</text>
<circle cx="1620.0" cy="560.0" r="2.0" stroke="#0000b2" stroke-width="2.8" fill="#0000b2" />
</g>
<g>
<path d="M 1200,740 L 1214,748 L 1214,732 Z" stroke="#000000" stroke-width="2.8" fill="none"/>
<text text-anchor="start" x="1219.0" y="746.75" fill="#808080" style="font-size:18">DBG</text>
<circle cx="1200.0" cy="740.0" r="2.0" stroke="#0000b2" stroke-width="2.8" fill="#0000b2" />
</g>
<g>
<path d="M 1620,380 L 1606,372 L 1606,388 Z" stroke="#000000" stroke-width="2.8" fill="none"/>
<text text-anchor="end" x="1601.0" y="386.75" fill="#808080" style="font-size:18">DBG</text>
<circle cx="1620.0" cy="380.0" r="2.0" stroke="#0000b2" stroke-width="2.8" fill="#0000b2" />
</g>
<g>
<path d="M 1380,300 L 1394,308 L 1394,292 Z" stroke="#000000" stroke-width="2.8" fill="none"/>
<text text-anchor="start" x="1399.0" y="306.75" fill="#808080" style="font-size:18">IR<tspan style="font-size:80%;baseline-shift:sub">4</tspan></text>
<circle cx="1380.0" cy="300.0" r="2.0" stroke="#0000b2" stroke-width="2.8" fill="#0000b2" />
</g>
<g>
<path d="M 1460,760 L 1468,746 L 1452,746 Z" stroke="#000000" stroke-width="2.8" fill="none"/>
<text text-anchor="start" x="1460.0" y="747.75" fill="#808080" style="font-size:18" transform="rotate(-90,1460.0,741.0)" >IR<tspan style="font-size:80%;baseline-shift:sub">4</tspan></text>
<circle cx="1460.0" cy="760.0" r="2.0" stroke="#0000b2" stroke-width="2.8" fill="#0000b2" />
</g>
<g>
<path d="M 1360,280 L 1374,288 L 1374,272 Z" stroke="#000000" stroke-width="2.8" fill="none"/>
<text text-anchor="start" x="1379.0" y="286.75" fill="#808080" style="font-size:18">IR<tspan style="font-size:80%;baseline-shift:sub">5</tspan></text>
<circle cx="1360.0" cy="280.0" r="2.0" stroke="#0000b2" stroke-width="2.8" fill="#0000b2" />
</g>
<g>
<path d="M 1340,260 L 1354,268 L 1354,252 Z" stroke="#000000" stroke-width="2.8" fill="none"/>
<text text-anchor="start" x="1359.0" y="266.75" fill="#808080" style="font-size:18">IR<tspan style="font-size:80%;baseline-shift:sub">6</tspan></text>
<circle cx="1340.0" cy="260.0" r="2.0" stroke="#0000b2" stroke-width="2.8" fill="#0000b2" />
</g>
<g>
<path d="M 1320,240 L 1334,248 L 1334,232 Z" stroke="#000000" stroke-width="2.8" fill="none"/>
<text text-anchor="start" x="1339.0" y="246.75" fill="#808080" style="font-size:18">IR<tspan style="font-size:80%;baseline-shift:sub">7</tspan></text>
<circle cx="1320.0" cy="240.0" r="2.0" stroke="#0000b2" stroke-width="2.8" fill="#0000b2" />
</g>
<g>
<path d="M 1420,760 L 1428,746 L 1412,746 Z" stroke="#000000" stroke-width="2.8" fill="none"/>
<text text-anchor="start" x="1420.0" y="747.75" fill="#808080" style="font-size:18" transform="rotate(-90,1420.0,741.0)" >IR<tspan style="font-size:80%;baseline-shift:sub">5</tspan></text>
<circle cx="1420.0" cy="760.0" r="2.0" stroke="#0000b2" stroke-width="2.8" fill="#0000b2" />
</g>
<g>
<path d="M 1380,760 L 1388,746 L 1372,746 Z" stroke="#000000" stroke-width="2.8" fill="none"/>
<text text-anchor="start" x="1380.0" y="747.75" fill="#808080" style="font-size:18" transform="rotate(-90,1380.0,741.0)" >IR<tspan style="font-size:80%;baseline-shift:sub">6</tspan></text>
<circle cx="1380.0" cy="760.0" r="2.0" stroke="#0000b2" stroke-width="2.8" fill="#0000b2" />
</g>
<g>
<path d="M 1340,760 L 1348,746 L 1332,746 Z" stroke="#000000" stroke-width="2.8" fill="none"/>
<text text-anchor="start" x="1340.0" y="747.75" fill="#808080" style="font-size:18" transform="rotate(-90,1340.0,741.0)" >IR<tspan style="font-size:80%;baseline-shift:sub">7</tspan></text>
<circle cx="1340.0" cy="760.0" r="2.0" stroke="#0000b2" stroke-width="2.8" fill="#0000b2" />
</g>
<g>
<path d="M 300,300 L 314,308 L 314,292 Z" stroke="#000000" stroke-width="2.8" fill="none"/>
<text text-anchor="start" x="319.0" y="306.75" fill="#808080" style="font-size:18">BUS<tspan style="font-size:80%;baseline-shift:sub">0</tspan></text>
<circle cx="300.0" cy="300.0" r="2.0" stroke="#0000b2" stroke-width="2.8" fill="#0000b2" />
</g>
<g>
<path d="M 300,340 L 314,348 L 314,332 Z" stroke="#000000" stroke-width="2.8" fill="none"/>
<text text-anchor="start" x="319.0" y="346.75" fill="#808080" style="font-size:18">BUS<tspan style="font-size:80%;baseline-shift:sub">1</tspan></text>
<circle cx="300.0" cy="340.0" r="2.0" stroke="#0000b2" stroke-width="2.8" fill="#0000b2" />
</g>
<g>
<path d="M 300,380 L 314,388 L 314,372 Z" stroke="#000000" stroke-width="2.8" fill="none"/>
<text text-anchor="start" x="319.0" y="386.75" fill="#808080" style="font-size:18">BUS<tspan style="font-size:80%;baseline-shift:sub">2</tspan></text>
<circle cx="300.0" cy="380.0" r="2.0" stroke="#0000b2" stroke-width="2.8" fill="#0000b2" />
</g>
<g>
<path d="M 300,420 L 314,428 L 314,412 Z" stroke="#000000" stroke-width="2.8" fill="none"/>
<text text-anchor="start" x="319.0" y="426.75" fill="#808080" style="font-size:18">BUS<tspan style="font-size:80%;baseline-shift:sub">3</tspan></text>
<circle cx="300.0" cy="420.0" r="2.0" stroke="#0000b2" stroke-width="2.8" fill="#0000b2" />
</g>
<g>
<path d="M 300,460 L 314,468 L 314,452 Z" stroke="#000000" stroke-width="2.8" fill="none"/>
<text text-anchor="start" x="319.0" y="466.75" fill="#808080" style="font-size:18">BUS<tspan style="font-size:80%;baseline-shift:sub">4</tspan></text>
<circle cx="300.0" cy="460.0" r="2.0" stroke="#0000b2" stroke-width="2.8" fill="#0000b2" />
</g>
<g>
<path d="M 300,500 L 314,508 L 314,492 Z" stroke="#000000" stroke-width="2.8" fill="none"/>
<text text-anchor="start" x="319.0" y="506.75" fill="#808080" style="font-size:18">BUS<tspan style="font-size:80%;baseline-shift:sub">5</tspan></text>
<circle cx="300.0" cy="500.0" r="2.0" stroke="#0000b2" stroke-width="2.8" fill="#0000b2" />
</g>
<g>
<path d="M 300,540 L 314,548 L 314,532 Z" stroke="#000000" stroke-width="2.8" fill="none"/>
<text text-anchor="start" x="319.0" y="546.75" fill="#808080" style="font-size:18">BUS<tspan style="font-size:80%;baseline-shift:sub">6</tspan></text>
<circle cx="300.0" cy="540.0" r="2.0" stroke="#0000b2" stroke-width="2.8" fill="#0000b2" />
</g>
<g>
<path d="M 300,580 L 314,588 L 314,572 Z" stroke="#000000" stroke-width="2.8" fill="none"/>
<text text-anchor="start" x="319.0" y="586.75" fill="#808080" style="font-size:18">BUS<tspan style="font-size:80%;baseline-shift:sub">7</tspan></text>
<circle cx="300.0" cy="580.0" r="2.0" stroke="#0000b2" stroke-width="2.8" fill="#0000b2" />
</g>
<g>
<path d="M 460,300 L 446,292 L 446,308 Z" stroke="#000000" stroke-width="2.8" fill="none"/>
<text text-anchor="end" x="441.0" y="306.75" fill="#808080" style="font-size:18">BUS<tspan style="font-size:80%;baseline-shift:sub">7</tspan></text>
<circle cx="460.0" cy="300.0" r="2.0" stroke="#0000b2" stroke-width="2.8" fill="#0000b2" />
</g>
<g>
<path d="M 460,340 L 446,332 L 446,348 Z" stroke="#000000" stroke-width="2.8" fill="none"/>
<text text-anchor="end" x="441.0" y="346.75" fill="#808080" style="font-size:18">BUS<tspan style="font-size:80%;baseline-shift:sub">6</tspan></text>
<circle cx="460.0" cy="340.0" r="2.0" stroke="#0000b2" stroke-width="2.8" fill="#0000b2" />
</g>
<g>
<path d="M 460,380 L 446,372 L 446,388 Z" stroke="#000000" stroke-width="2.8" fill="none"/>
<text text-anchor="end" x="441.0" y="386.75" fill="#808080" style="font-size:18">BUS<tspan style="font-size:80%;baseline-shift:sub">5</tspan></text>
<circle cx="460.0" cy="380.0" r="2.0" stroke="#0000b2" stroke-width="2.8" fill="#0000b2" />
</g>
<g>
<path d="M 460,420 L 446,412 L 446,428 Z" stroke="#000000" stroke-width="2.8" fill="none"/>
<text text-anchor="end" x="441.0" y="426.75" fill="#808080" style="font-size:18">BUS<tspan style="font-size:80%;baseline-shift:sub">4</tspan></text>
<circle cx="460.0" cy="420.0" r="2.0" stroke="#0000b2" stroke-width="2.8" fill="#0000b2" />
</g>
<g>
<path d="M 460,460 L 446,452 L 446,468 Z" stroke="#000000" stroke-width="2.8" fill="none"/>
<text text-anchor="end" x="441.0" y="466.75" fill="#808080" style="font-size:18">BUS<tspan style="font-size:80%;baseline-shift:sub">3</tspan></text>
<circle cx="460.0" cy="460.0" r="2.0" stroke="#0000b2" stroke-width="2.8" fill="#0000b2" />
</g>
<g>
<path d="M 460,500 L 446,492 L 446,508 Z" stroke="#000000" stroke-width="2.8" fill="none"/>
<text text-anchor="end" x="441.0" y="506.75" fill="#808080" style="font-size:18">BUS<tspan style="font-size:80%;baseline-shift:sub">2</tspan></text>
<circle cx="460.0" cy="500.0" r="2.0" stroke="#0000b2" stroke-width="2.8" fill="#0000b2" />
</g>
<g>
<path d="M 460,540 L 446,532 L 446,548 Z" stroke="#000000" stroke-width="2.8" fill="none"/>
<text text-anchor="end" x="441.0" y="546.75" fill="#808080" style="font-size:18">BUS<tspan style="font-size:80%;baseline-shift:sub">1</tspan></text>
<circle cx="460.0" cy="540.0" r="2.0" stroke="#0000b2" stroke-width="2.8" fill="#0000b2" />
</g>
<g>
<path d="M 460,580 L 446,572 L 446,588 Z" stroke="#000000" stroke-width="2.8" fill="none"/>
<text text-anchor="end" x="441.0" y="586.75" fill="#808080" style="font-size:18">BUS<tspan style="font-size:80%;baseline-shift:sub">0</tspan></text>
<circle cx="460.0" cy="580.0" r="2.0" stroke="#0000b2" stroke-width="2.8" fill="#0000b2" />
</g>
<g>
<path d="M 1671,575 L 1641,575 L 1641,545 L 1671,545 Z" stroke="#000000" stroke-width="2.8" fill="none"/>
<path d="M 1665,555 L 1660,555 L 1660,565 L 1655,565 L 1655,555 L 1650,555 L 1650,565 L 1645,565" stroke="#000000" stroke-width="1.4" fill="none"/>
<text text-anchor="start" x="1685.0" y="569.0" fill="#000000" style="font-size:24">CLK</text>
<circle cx="1640.0" cy="560.0" r="2.0" stroke="#b20000" stroke-width="2.8" fill="#b20000" />
</g>
</g>
</svg>