<?xml version="1.0" encoding="UTF-8" standalone="no"?>
<!-- Created with Digital by H.Neemann -->
<!-- created: Tue Mar 26 15:31:58 CDT 2019 -->

<svg
   xmlns:svg="http://www.w3.org/2000/svg"
   xmlns="http://www.w3.org/2000/svg"
   width="79.05mm"
   height="54.9mm"
   viewBox="457 156 527 366">
<g stroke-linecap="square">
<path d="M 570,260 L 590,260" stroke="#000000" stroke-width="4.199999999999999" fill="none"/>
<path d="M 740,320 L 760,320" stroke="#0000b2" stroke-width="2.8" fill="none"/>
<path d="M 800,320 L 820,320" stroke="#0000b2" stroke-width="2.8" fill="none"/>
<path d="M 620,300 L 620,320 L 640,320" stroke="#0000b2" stroke-width="2.8" fill="none"/>
<path d="M 740,480 L 760,480" stroke="#0000b2" stroke-width="2.8" fill="none"/>
<path d="M 800,480 L 820,480" stroke="#0000b2" stroke-width="2.8" fill="none"/>
<path d="M 620,420 L 640,420" stroke="#0000b2" stroke-width="2.8" fill="none"/>
<path d="M 740,420 L 760,420" stroke="#0000b2" stroke-width="2.8" fill="none"/>
<path d="M 800,420 L 820,420" stroke="#0000b2" stroke-width="2.8" fill="none"/>
<path d="M 740,260 L 760,260" stroke="#0000b2" stroke-width="2.8" fill="none"/>
<path d="M 800,260 L 820,260" stroke="#0000b2" stroke-width="2.8" fill="none"/>
<path d="M 620,360 L 640,360" stroke="#0000b2" stroke-width="2.8" fill="none"/>
<path d="M 560,360 L 600,360" stroke="#0000b2" stroke-width="2.8" fill="none"/>
<path d="M 740,360 L 760,360" stroke="#0000b2" stroke-width="2.8" fill="none"/>
<path d="M 800,360 L 820,360" stroke="#0000b2" stroke-width="2.8" fill="none"/>
<path d="M 740,200 L 760,200" stroke="#0000b2" stroke-width="2.8" fill="none"/>
<path d="M 800,200 L 820,200" stroke="#0000b2" stroke-width="2.8" fill="none"/>
<path d="M 840,200 L 880,200" stroke="#0000b2" stroke-width="2.8" fill="none"/>
<path d="M 580,260 L 580,300 L 620,300 L 640,300" stroke="#0000b2" stroke-width="2.8" fill="none"/>
<path d="M 740,300 L 760,300" stroke="#0000b2" stroke-width="2.8" fill="none"/>
<path d="M 800,300 L 820,300" stroke="#0000b2" stroke-width="2.8" fill="none"/>
<path d="M 740,460 L 760,460" stroke="#0000b2" stroke-width="2.8" fill="none"/>
<path d="M 800,460 L 820,460" stroke="#0000b2" stroke-width="2.8" fill="none"/>
<path d="M 620,400 L 640,400" stroke="#0000b2" stroke-width="2.8" fill="none"/>
<path d="M 740,400 L 760,400" stroke="#0000b2" stroke-width="2.8" fill="none"/>
<path d="M 800,400 L 820,400" stroke="#0000b2" stroke-width="2.8" fill="none"/>
<path d="M 740,240 L 760,240" stroke="#0000b2" stroke-width="2.8" fill="none"/>
<path d="M 800,240 L 820,240" stroke="#0000b2" stroke-width="2.8" fill="none"/>
<path d="M 740,340 L 760,340" stroke="#0000b2" stroke-width="2.8" fill="none"/>
<path d="M 800,340 L 820,340" stroke="#0000b2" stroke-width="2.8" fill="none"/>
<path d="M 620,320 L 620,340 L 640,340" stroke="#0000b2" stroke-width="2.8" fill="none"/>
<path d="M 740,500 L 760,500" stroke="#0000b2" stroke-width="2.8" fill="none"/>
<path d="M 800,500 L 820,500" stroke="#0000b2" stroke-width="2.8" fill="none"/>
<path d="M 620,260 L 620,280 L 640,280" stroke="#0000b2" stroke-width="2.8" fill="none"/>
<path d="M 740,280 L 760,280" stroke="#0000b2" stroke-width="2.8" fill="none"/>
<path d="M 800,280 L 820,280" stroke="#0000b2" stroke-width="2.8" fill="none"/>
<path d="M 740,440 L 760,440" stroke="#0000b2" stroke-width="2.8" fill="none"/>
<path d="M 800,440 L 820,440" stroke="#0000b2" stroke-width="2.8" fill="none"/>
<path d="M 620,380 L 640,380" stroke="#0000b2" stroke-width="2.8" fill="none"/>
<path d="M 740,380 L 760,380" stroke="#0000b2" stroke-width="2.8" fill="none"/>
<path d="M 800,380 L 820,380" stroke="#0000b2" stroke-width="2.8" fill="none"/>
<path d="M 740,220 L 760,220" stroke="#0000b2" stroke-width="2.8" fill="none"/>
<path d="M 800,220 L 820,220" stroke="#0000b2" stroke-width="2.8" fill="none"/>
<path d="M 620,254 L 620,260" stroke="#000000" stroke-width="2.8" fill="none"/>
<path d="M 600,360 L 610,360 L 620,360" stroke="#000000" stroke-width="2.8" fill="none"/>
<path d="M 620,380 L 610,380" stroke="#000000" stroke-width="2.8" fill="none"/>
<path d="M 620,400 L 610,400" stroke="#000000" stroke-width="2.8" fill="none"/>
<path d="M 620,420 L 610,420" stroke="#000000" stroke-width="2.8" fill="none"/>
<path d="M 820,200 L 830,200 L 840,200" stroke="#000000" stroke-width="2.8" fill="none"/>
<path d="M 820,220 L 830,220" stroke="#000000" stroke-width="2.8" fill="none"/>
<path d="M 820,240 L 830,240" stroke="#000000" stroke-width="2.8" fill="none"/>
<path d="M 820,260 L 830,260" stroke="#000000" stroke-width="2.8" fill="none"/>
<path d="M 820,280 L 830,280" stroke="#000000" stroke-width="2.8" fill="none"/>
<path d="M 820,300 L 830,300" stroke="#000000" stroke-width="2.8" fill="none"/>
<path d="M 820,320 L 830,320" stroke="#000000" stroke-width="2.8" fill="none"/>
<path d="M 820,340 L 830,340" stroke="#000000" stroke-width="2.8" fill="none"/>
<path d="M 820,360 L 830,360" stroke="#000000" stroke-width="2.8" fill="none"/>
<path d="M 820,380 L 830,380" stroke="#000000" stroke-width="2.8" fill="none"/>
<path d="M 820,400 L 830,400" stroke="#000000" stroke-width="2.8" fill="none"/>
<path d="M 820,420 L 830,420" stroke="#000000" stroke-width="2.8" fill="none"/>
<path d="M 820,440 L 830,440" stroke="#000000" stroke-width="2.8" fill="none"/>
<path d="M 820,460 L 830,460" stroke="#000000" stroke-width="2.8" fill="none"/>
<path d="M 820,480 L 830,480" stroke="#000000" stroke-width="2.8" fill="none"/>
<path d="M 820,500 L 830,500" stroke="#000000" stroke-width="2.8" fill="none"/>
<g>
<circle cx="620.0" cy="320.0" r="4.0" stroke="#0000b2" stroke-width="2.8" fill="#0000b2" />
<circle cx="620.0" cy="300.0" r="4.0" stroke="#0000b2" stroke-width="2.8" fill="#0000b2" />
</g>
<g>
<circle cx="580.0" cy="260.0" r="2.0" stroke="#b20000" stroke-width="2.8" fill="#b20000" />
</g>
<g>
<path d="M 610,264 L 620,251 L 630,264" stroke="#000000" stroke-width="2.8" fill="none"/>
<circle cx="620.0" cy="260.0" r="2.0" stroke="#b20000" stroke-width="2.8" fill="#b20000" />
</g>
<g>
<path d="M 529,345 L 559,345 L 559,375 L 529,375 Z" stroke="#000000" stroke-width="2.8" fill="none"/>
<circle cx="544.0" cy="360.0" r="9.0" stroke="#000000" stroke-width="2.8" fill="none" />
<text text-anchor="end" x="515.0" y="369.0" fill="#000000" style="font-size:24"><tspan style="font-style:italic">INST</tspan></text>
<circle cx="560.0" cy="360.0" r="2.0" stroke="#b20000" stroke-width="2.8" fill="#b20000" />
</g>
<g>
<path d="M 640,180 L 740,180 L 740,520 L 640,520 Z" stroke="#ffffb4" stroke-width="0.0" fill="#ffffb4" fill-opacity="0.7843137254901961"/>
<path d="M 640,180 L 740,180 L 740,520 L 640,520 Z" stroke="#000000" stroke-width="2.8" fill="none"/>
<text text-anchor="middle" x="690.0" y="176.0" fill="#000000" style="font-size:24">74154</text>
<text text-anchor="start" x="644.0" y="286.75" fill="#808080" style="font-size:18">VCC</text>
<text text-anchor="start" x="644.0" y="306.75" fill="#808080" style="font-size:18">GND</text>
<text text-anchor="start" x="644.0" y="326.75" fill="#808080" style="font-size:18">G1</text>
<text text-anchor="start" x="644.0" y="346.75" fill="#808080" style="font-size:18">G2</text>
<text text-anchor="start" x="644.0" y="366.75" fill="#808080" style="font-size:18">A</text>
<text text-anchor="start" x="644.0" y="386.75" fill="#808080" style="font-size:18">B</text>
<text text-anchor="start" x="644.0" y="406.75" fill="#808080" style="font-size:18">C</text>
<text text-anchor="start" x="644.0" y="426.75" fill="#808080" style="font-size:18">D</text>
<text text-anchor="end" x="736.0" y="206.75" fill="#808080" style="font-size:18">Y0</text>
<text text-anchor="end" x="736.0" y="226.75" fill="#808080" style="font-size:18">Y1</text>
<text text-anchor="end" x="736.0" y="246.75" fill="#808080" style="font-size:18">Y2</text>
<text text-anchor="end" x="736.0" y="266.75" fill="#808080" style="font-size:18">Y3</text>
<text text-anchor="end" x="736.0" y="286.75" fill="#808080" style="font-size:18">Y4</text>
<text text-anchor="end" x="736.0" y="306.75" fill="#808080" style="font-size:18">Y5</text>
<text text-anchor="end" x="736.0" y="326.75" fill="#808080" style="font-size:18">Y6</text>
<text text-anchor="end" x="736.0" y="346.75" fill="#808080" style="font-size:18">Y7</text>
<text text-anchor="end" x="736.0" y="366.75" fill="#808080" style="font-size:18">Y8</text>
<text text-anchor="end" x="736.0" y="386.75" fill="#808080" style="font-size:18">Y9</text>
<text text-anchor="end" x="736.0" y="406.75" fill="#808080" style="font-size:18">Y10</text>
<text text-anchor="end" x="736.0" y="426.75" fill="#808080" style="font-size:18">Y11</text>
<text text-anchor="end" x="736.0" y="446.75" fill="#808080" style="font-size:18">Y12</text>
<text text-anchor="end" x="736.0" y="466.75" fill="#808080" style="font-size:18">Y13</text>
<text text-anchor="end" x="736.0" y="486.75" fill="#808080" style="font-size:18">Y14</text>
<text text-anchor="end" x="736.0" y="506.75" fill="#808080" style="font-size:18">Y15</text>
<circle cx="640.0" cy="360.0" r="2.0" stroke="#0000b2" stroke-width="2.8" fill="#0000b2" />
<circle cx="640.0" cy="400.0" r="2.0" stroke="#0000b2" stroke-width="2.8" fill="#0000b2" />
<circle cx="640.0" cy="380.0" r="2.0" stroke="#0000b2" stroke-width="2.8" fill="#0000b2" />
<circle cx="640.0" cy="420.0" r="2.0" stroke="#0000b2" stroke-width="2.8" fill="#0000b2" />
<circle cx="640.0" cy="320.0" r="2.0" stroke="#0000b2" stroke-width="2.8" fill="#0000b2" />
<circle cx="640.0" cy="340.0" r="2.0" stroke="#0000b2" stroke-width="2.8" fill="#0000b2" />
<circle cx="640.0" cy="280.0" r="2.0" stroke="#0000b2" stroke-width="2.8" fill="#0000b2" />
<circle cx="640.0" cy="300.0" r="2.0" stroke="#0000b2" stroke-width="2.8" fill="#0000b2" />
<circle cx="740.0" cy="200.0" r="2.0" stroke="#b20000" stroke-width="2.8" fill="#b20000" />
<circle cx="740.0" cy="220.0" r="2.0" stroke="#b20000" stroke-width="2.8" fill="#b20000" />
<circle cx="740.0" cy="240.0" r="2.0" stroke="#b20000" stroke-width="2.8" fill="#b20000" />
<circle cx="740.0" cy="260.0" r="2.0" stroke="#b20000" stroke-width="2.8" fill="#b20000" />
<circle cx="740.0" cy="280.0" r="2.0" stroke="#b20000" stroke-width="2.8" fill="#b20000" />
<circle cx="740.0" cy="300.0" r="2.0" stroke="#b20000" stroke-width="2.8" fill="#b20000" />
<circle cx="740.0" cy="320.0" r="2.0" stroke="#b20000" stroke-width="2.8" fill="#b20000" />
<circle cx="740.0" cy="340.0" r="2.0" stroke="#b20000" stroke-width="2.8" fill="#b20000" />
<circle cx="740.0" cy="360.0" r="2.0" stroke="#b20000" stroke-width="2.8" fill="#b20000" />
<circle cx="740.0" cy="380.0" r="2.0" stroke="#b20000" stroke-width="2.8" fill="#b20000" />
<circle cx="740.0" cy="400.0" r="2.0" stroke="#b20000" stroke-width="2.8" fill="#b20000" />
<circle cx="740.0" cy="420.0" r="2.0" stroke="#b20000" stroke-width="2.8" fill="#b20000" />
<circle cx="740.0" cy="440.0" r="2.0" stroke="#b20000" stroke-width="2.8" fill="#b20000" />
<circle cx="740.0" cy="460.0" r="2.0" stroke="#b20000" stroke-width="2.8" fill="#b20000" />
<circle cx="740.0" cy="480.0" r="2.0" stroke="#b20000" stroke-width="2.8" fill="#b20000" />
<circle cx="740.0" cy="500.0" r="2.0" stroke="#b20000" stroke-width="2.8" fill="#b20000" />
</g>
<g>
<text text-anchor="end" x="598.0" y="357.0" fill="#808080" style="font-size:12">0-7</text>
<text text-anchor="start" x="622.0" y="357.0" fill="#808080" style="font-size:12">4</text>
<text text-anchor="start" x="622.0" y="377.0" fill="#808080" style="font-size:12">5</text>
<text text-anchor="start" x="622.0" y="397.0" fill="#808080" style="font-size:12">6</text>
<text text-anchor="start" x="622.0" y="417.0" fill="#808080" style="font-size:12">7</text>
<path d="M 608,358 L 612,358 L 612,422 L 608,422 Z" stroke="#000000" stroke-width="2.8" fill="#000000" fill-opacity="1.0"/>
<circle cx="600.0" cy="360.0" r="2.0" stroke="#0000b2" stroke-width="2.8" fill="#0000b2" />
<circle cx="620.0" cy="360.0" r="2.0" stroke="#b20000" stroke-width="2.8" fill="#b20000" />
<circle cx="620.0" cy="380.0" r="2.0" stroke="#b20000" stroke-width="2.8" fill="#b20000" />
<circle cx="620.0" cy="400.0" r="2.0" stroke="#b20000" stroke-width="2.8" fill="#b20000" />
<circle cx="620.0" cy="420.0" r="2.0" stroke="#b20000" stroke-width="2.8" fill="#b20000" />
</g>
<g>
<text text-anchor="end" x="818.0" y="197.0" fill="#808080" style="font-size:12">0</text>
<text text-anchor="end" x="818.0" y="217.0" fill="#808080" style="font-size:12">1</text>
<text text-anchor="end" x="818.0" y="237.0" fill="#808080" style="font-size:12">2</text>
<text text-anchor="end" x="818.0" y="257.0" fill="#808080" style="font-size:12">3</text>
<text text-anchor="end" x="818.0" y="277.0" fill="#808080" style="font-size:12">4</text>
<text text-anchor="end" x="818.0" y="297.0" fill="#808080" style="font-size:12">5</text>
<text text-anchor="end" x="818.0" y="317.0" fill="#808080" style="font-size:12">6</text>
<text text-anchor="end" x="818.0" y="337.0" fill="#808080" style="font-size:12">7</text>
<text text-anchor="end" x="818.0" y="357.0" fill="#808080" style="font-size:12">8</text>
<text text-anchor="end" x="818.0" y="377.0" fill="#808080" style="font-size:12">9</text>
<text text-anchor="end" x="818.0" y="397.0" fill="#808080" style="font-size:12">10</text>
<text text-anchor="end" x="818.0" y="417.0" fill="#808080" style="font-size:12">11</text>
<text text-anchor="end" x="818.0" y="437.0" fill="#808080" style="font-size:12">12</text>
<text text-anchor="end" x="818.0" y="457.0" fill="#808080" style="font-size:12">13</text>
<text text-anchor="end" x="818.0" y="477.0" fill="#808080" style="font-size:12">14</text>
<text text-anchor="end" x="818.0" y="497.0" fill="#808080" style="font-size:12">15</text>
<text text-anchor="start" x="842.0" y="197.0" fill="#808080" style="font-size:12">0-15</text>
<path d="M 828,198 L 832,198 L 832,502 L 828,502 Z" stroke="#000000" stroke-width="2.8" fill="#000000" fill-opacity="1.0"/>
<circle cx="820.0" cy="200.0" r="2.0" stroke="#0000b2" stroke-width="2.8" fill="#0000b2" />
<circle cx="820.0" cy="220.0" r="2.0" stroke="#0000b2" stroke-width="2.8" fill="#0000b2" />
<circle cx="820.0" cy="240.0" r="2.0" stroke="#0000b2" stroke-width="2.8" fill="#0000b2" />
<circle cx="820.0" cy="260.0" r="2.0" stroke="#0000b2" stroke-width="2.8" fill="#0000b2" />
<circle cx="820.0" cy="280.0" r="2.0" stroke="#0000b2" stroke-width="2.8" fill="#0000b2" />
<circle cx="820.0" cy="300.0" r="2.0" stroke="#0000b2" stroke-width="2.8" fill="#0000b2" />
<circle cx="820.0" cy="320.0" r="2.0" stroke="#0000b2" stroke-width="2.8" fill="#0000b2" />
<circle cx="820.0" cy="340.0" r="2.0" stroke="#0000b2" stroke-width="2.8" fill="#0000b2" />
<circle cx="820.0" cy="360.0" r="2.0" stroke="#0000b2" stroke-width="2.8" fill="#0000b2" />
<circle cx="820.0" cy="380.0" r="2.0" stroke="#0000b2" stroke-width="2.8" fill="#0000b2" />
<circle cx="820.0" cy="400.0" r="2.0" stroke="#0000b2" stroke-width="2.8" fill="#0000b2" />
<circle cx="820.0" cy="420.0" r="2.0" stroke="#0000b2" stroke-width="2.8" fill="#0000b2" />
<circle cx="820.0" cy="440.0" r="2.0" stroke="#0000b2" stroke-width="2.8" fill="#0000b2" />
<circle cx="820.0" cy="460.0" r="2.0" stroke="#0000b2" stroke-width="2.8" fill="#0000b2" />
<circle cx="820.0" cy="480.0" r="2.0" stroke="#0000b2" stroke-width="2.8" fill="#0000b2" />
<circle cx="820.0" cy="500.0" r="2.0" stroke="#0000b2" stroke-width="2.8" fill="#0000b2" />
<circle cx="840.0" cy="200.0" r="2.0" stroke="#b20000" stroke-width="2.8" fill="#b20000" />
</g>
<g>
<circle cx="896.0" cy="200.0" r="9.0" stroke="#000000" stroke-width="2.8" fill="none" />
<circle cx="896.0" cy="200.0" r="15.0" stroke="#000000" stroke-width="2.8" fill="none" />
<text text-anchor="start" x="925.0" y="209.0" fill="#000000" style="font-size:24"><tspan style="font-style:italic">DISP</tspan></text>
<circle cx="880.0" cy="200.0" r="2.0" stroke="#0000b2" stroke-width="2.8" fill="#0000b2" />
</g>
<g>
<path d="M 761,188 L 779,200 L 761,212 Z" stroke="#000000" stroke-width="2.8" fill="none"/>
<circle cx="790.0" cy="200.0" r="9.0" stroke="#000000" stroke-width="2.8" fill="none" />
<circle cx="760.0" cy="200.0" r="2.0" stroke="#0000b2" stroke-width="2.8" fill="#0000b2" />
<circle cx="800.0" cy="200.0" r="2.0" stroke="#b20000" stroke-width="2.8" fill="#b20000" />
</g>
<g>
<path d="M 761,208 L 779,220 L 761,232 Z" stroke="#000000" stroke-width="2.8" fill="none"/>
<circle cx="790.0" cy="220.0" r="9.0" stroke="#000000" stroke-width="2.8" fill="none" />
<circle cx="760.0" cy="220.0" r="2.0" stroke="#0000b2" stroke-width="2.8" fill="#0000b2" />
<circle cx="800.0" cy="220.0" r="2.0" stroke="#b20000" stroke-width="2.8" fill="#b20000" />
</g>
<g>
<path d="M 761,228 L 779,240 L 761,252 Z" stroke="#000000" stroke-width="2.8" fill="none"/>
<circle cx="790.0" cy="240.0" r="9.0" stroke="#000000" stroke-width="2.8" fill="none" />
<circle cx="760.0" cy="240.0" r="2.0" stroke="#0000b2" stroke-width="2.8" fill="#0000b2" />
<circle cx="800.0" cy="240.0" r="2.0" stroke="#b20000" stroke-width="2.8" fill="#b20000" />
</g>
<g>
<path d="M 761,248 L 779,260 L 761,272 Z" stroke="#000000" stroke-width="2.8" fill="none"/>
<circle cx="790.0" cy="260.0" r="9.0" stroke="#000000" stroke-width="2.8" fill="none" />
<circle cx="760.0" cy="260.0" r="2.0" stroke="#0000b2" stroke-width="2.8" fill="#0000b2" />
<circle cx="800.0" cy="260.0" r="2.0" stroke="#b20000" stroke-width="2.8" fill="#b20000" />
</g>
<g>
<path d="M 761,268 L 779,280 L 761,292 Z" stroke="#000000" stroke-width="2.8" fill="none"/>
<circle cx="790.0" cy="280.0" r="9.0" stroke="#000000" stroke-width="2.8" fill="none" />
<circle cx="760.0" cy="280.0" r="2.0" stroke="#0000b2" stroke-width="2.8" fill="#0000b2" />
<circle cx="800.0" cy="280.0" r="2.0" stroke="#b20000" stroke-width="2.8" fill="#b20000" />
</g>
<g>
<path d="M 761,288 L 779,300 L 761,312 Z" stroke="#000000" stroke-width="2.8" fill="none"/>
<circle cx="790.0" cy="300.0" r="9.0" stroke="#000000" stroke-width="2.8" fill="none" />
<circle cx="760.0" cy="300.0" r="2.0" stroke="#0000b2" stroke-width="2.8" fill="#0000b2" />
<circle cx="800.0" cy="300.0" r="2.0" stroke="#b20000" stroke-width="2.8" fill="#b20000" />
</g>
<g>
<path d="M 761,308 L 779,320 L 761,332 Z" stroke="#000000" stroke-width="2.8" fill="none"/>
<circle cx="790.0" cy="320.0" r="9.0" stroke="#000000" stroke-width="2.8" fill="none" />
<circle cx="760.0" cy="320.0" r="2.0" stroke="#0000b2" stroke-width="2.8" fill="#0000b2" />
<circle cx="800.0" cy="320.0" r="2.0" stroke="#b20000" stroke-width="2.8" fill="#b20000" />
</g>
<g>
<path d="M 761,328 L 779,340 L 761,352 Z" stroke="#000000" stroke-width="2.8" fill="none"/>
<circle cx="790.0" cy="340.0" r="9.0" stroke="#000000" stroke-width="2.8" fill="none" />
<circle cx="760.0" cy="340.0" r="2.0" stroke="#0000b2" stroke-width="2.8" fill="#0000b2" />
<circle cx="800.0" cy="340.0" r="2.0" stroke="#b20000" stroke-width="2.8" fill="#b20000" />
</g>
<g>
<path d="M 761,348 L 779,360 L 761,372 Z" stroke="#000000" stroke-width="2.8" fill="none"/>
<circle cx="790.0" cy="360.0" r="9.0" stroke="#000000" stroke-width="2.8" fill="none" />
<circle cx="760.0" cy="360.0" r="2.0" stroke="#0000b2" stroke-width="2.8" fill="#0000b2" />
<circle cx="800.0" cy="360.0" r="2.0" stroke="#b20000" stroke-width="2.8" fill="#b20000" />
</g>
<g>
<path d="M 761,368 L 779,380 L 761,392 Z" stroke="#000000" stroke-width="2.8" fill="none"/>
<circle cx="790.0" cy="380.0" r="9.0" stroke="#000000" stroke-width="2.8" fill="none" />
<circle cx="760.0" cy="380.0" r="2.0" stroke="#0000b2" stroke-width="2.8" fill="#0000b2" />
<circle cx="800.0" cy="380.0" r="2.0" stroke="#b20000" stroke-width="2.8" fill="#b20000" />
</g>
<g>
<path d="M 761,388 L 779,400 L 761,412 Z" stroke="#000000" stroke-width="2.8" fill="none"/>
<circle cx="790.0" cy="400.0" r="9.0" stroke="#000000" stroke-width="2.8" fill="none" />
<circle cx="760.0" cy="400.0" r="2.0" stroke="#0000b2" stroke-width="2.8" fill="#0000b2" />
<circle cx="800.0" cy="400.0" r="2.0" stroke="#b20000" stroke-width="2.8" fill="#b20000" />
</g>
<g>
<path d="M 761,408 L 779,420 L 761,432 Z" stroke="#000000" stroke-width="2.8" fill="none"/>
<circle cx="790.0" cy="420.0" r="9.0" stroke="#000000" stroke-width="2.8" fill="none" />
<circle cx="760.0" cy="420.0" r="2.0" stroke="#0000b2" stroke-width="2.8" fill="#0000b2" />
<circle cx="800.0" cy="420.0" r="2.0" stroke="#b20000" stroke-width="2.8" fill="#b20000" />
</g>
<g>
<path d="M 761,428 L 779,440 L 761,452 Z" stroke="#000000" stroke-width="2.8" fill="none"/>
<circle cx="790.0" cy="440.0" r="9.0" stroke="#000000" stroke-width="2.8" fill="none" />
<circle cx="760.0" cy="440.0" r="2.0" stroke="#0000b2" stroke-width="2.8" fill="#0000b2" />
<circle cx="800.0" cy="440.0" r="2.0" stroke="#b20000" stroke-width="2.8" fill="#b20000" />
</g>
<g>
<path d="M 761,448 L 779,460 L 761,472 Z" stroke="#000000" stroke-width="2.8" fill="none"/>
<circle cx="790.0" cy="460.0" r="9.0" stroke="#000000" stroke-width="2.8" fill="none" />
<circle cx="760.0" cy="460.0" r="2.0" stroke="#0000b2" stroke-width="2.8" fill="#0000b2" />
<circle cx="800.0" cy="460.0" r="2.0" stroke="#b20000" stroke-width="2.8" fill="#b20000" />
</g>
<g>
<path d="M 761,468 L 779,480 L 761,492 Z" stroke="#000000" stroke-width="2.8" fill="none"/>
<circle cx="790.0" cy="480.0" r="9.0" stroke="#000000" stroke-width="2.8" fill="none" />
<circle cx="760.0" cy="480.0" r="2.0" stroke="#0000b2" stroke-width="2.8" fill="#0000b2" />
<circle cx="800.0" cy="480.0" r="2.0" stroke="#b20000" stroke-width="2.8" fill="#b20000" />
</g>
<g>
<path d="M 761,488 L 779,500 L 761,512 Z" stroke="#000000" stroke-width="2.8" fill="none"/>
<circle cx="790.0" cy="500.0" r="9.0" stroke="#000000" stroke-width="2.8" fill="none" />
<circle cx="760.0" cy="500.0" r="2.0" stroke="#0000b2" stroke-width="2.8" fill="#0000b2" />
<circle cx="800.0" cy="500.0" r="2.0" stroke="#b20000" stroke-width="2.8" fill="#b20000" />
</g>
</g>
</svg>