<?xml version="1.0" encoding="UTF-8" standalone="no"?>
<!-- Created with Digital by H.Neemann -->
<!-- created: Tue Mar 26 14:55:58 CDT 2019 -->

<svg
   xmlns:svg="http://www.w3.org/2000/svg"
   xmlns="http://www.w3.org/2000/svg"
   width="163.65mm"
   height="112.65mm"
   viewBox="160 -234 1091 751">
<g stroke-linecap="square">
<path d="M 450,380 L 470,380" stroke="#000000" stroke-width="4.199999999999999" fill="none"/>
<path d="M 450,100 L 470,100" stroke="#000000" stroke-width="4.199999999999999" fill="none"/>
<path d="M 810,400 L 830,400" stroke="#000000" stroke-width="4.199999999999999" fill="none"/>
<path d="M 460,100 L 460,160 L 520,160" stroke="#0000b2" stroke-width="2.8" fill="none"/>
<path d="M 780,80 L 780,160 L 840,160" stroke="#0000b2" stroke-width="2.8" fill="none"/>
<path d="M 1020,260 L 1020,160 L 1080,160" stroke="#0000b2" stroke-width="2.8" fill="none"/>
<path d="M 280,160 L 300,160" stroke="#0000b2" stroke-width="2.8" fill="none"/>
<path d="M 620,260 L 840,260" stroke="#0000b2" stroke-width="2.8" fill="none"/>
<path d="M 500,280 L 500,260 L 520,260" stroke="#0000b2" stroke-width="2.8" fill="none"/>
<path d="M 940,260 L 1020,260 L 1160,260 L 1160,360" stroke="#0000b2" stroke-width="2.8" fill="none"/>
<path d="M 780,400 L 780,420 L 800,420 L 800,340 L 840,340" stroke="#0000b2" stroke-width="2.8" fill="none"/>
<path d="M 280,420 L 720,420 L 720,300 L 840,300" stroke="#0000b2" stroke-width="2.8" fill="none"/>
<path d="M 500,340 L 500,360 L 520,360" stroke="#0000b2" stroke-width="2.8" fill="none"/>
<path d="M 500,200 L 520,200" stroke="#0000b2" stroke-width="2.8" fill="none"/>
<path d="M 700,80 L 700,200 L 840,200" stroke="#0000b2" stroke-width="2.8" fill="none"/>
<path d="M 500,100 L 500,140 L 520,140" stroke="#0000b2" stroke-width="2.8" fill="none"/>
<path d="M 820,80 L 820,140 L 840,140" stroke="#0000b2" stroke-width="2.8" fill="none"/>
<path d="M 1000,240 L 1000,140 L 1080,140" stroke="#0000b2" stroke-width="2.8" fill="none"/>
<path d="M 280,460 L 340,460 L 340,320 L 520,320" stroke="#0000b2" stroke-width="2.8" fill="none"/>
<path d="M 620,240 L 840,240" stroke="#0000b2" stroke-width="2.8" fill="none"/>
<path d="M 500,240 L 520,240" stroke="#0000b2" stroke-width="2.8" fill="none"/>
<path d="M 940,240 L 1000,240 L 1120,240 L 1120,360" stroke="#0000b2" stroke-width="2.8" fill="none"/>
<path d="M 1120,-20 L 1140,-20" stroke="#0000b2" stroke-width="2.8" fill="none"/>
<path d="M 1120,20 L 1140,20" stroke="#0000b2" stroke-width="2.8" fill="none"/>
<path d="M 460,380 L 460,340 L 500,340 L 520,340" stroke="#0000b2" stroke-width="2.8" fill="none"/>
<path d="M 500,180 L 520,180" stroke="#0000b2" stroke-width="2.8" fill="none"/>
<path d="M 740,80 L 740,180 L 840,180" stroke="#0000b2" stroke-width="2.8" fill="none"/>
<path d="M 1040,280 L 1040,180 L 1080,180" stroke="#0000b2" stroke-width="2.8" fill="none"/>
<path d="M 280,500 L 320,500 L 320,300 L 520,300" stroke="#0000b2" stroke-width="2.8" fill="none"/>
<path d="M 620,280 L 840,280" stroke="#0000b2" stroke-width="2.8" fill="none"/>
<path d="M 940,280 L 1040,280 L 1200,280 L 1200,360" stroke="#0000b2" stroke-width="2.8" fill="none"/>
<path d="M 280,280 L 500,280 L 520,280" stroke="#0000b2" stroke-width="2.8" fill="none"/>
<path d="M 980,220 L 980,120 L 1080,120" stroke="#0000b2" stroke-width="2.8" fill="none"/>
<path d="M 1100,120 L 1140,120" stroke="#0000b2" stroke-width="2.8" fill="none"/>
<path d="M 1120,-60 L 1140,-60" stroke="#0000b2" stroke-width="2.8" fill="none"/>
<path d="M 1120,60 L 1140,60" stroke="#0000b2" stroke-width="2.8" fill="none"/>
<path d="M 620,220 L 840,220" stroke="#0000b2" stroke-width="2.8" fill="none"/>
<path d="M 500,220 L 520,220" stroke="#0000b2" stroke-width="2.8" fill="none"/>
<path d="M 940,220 L 980,220 L 1080,220 L 1080,360" stroke="#0000b2" stroke-width="2.8" fill="none"/>
<path d="M 740,-140 L 740,-100" stroke="#0000b2" stroke-width="2.8" fill="none"/>
<path d="M 780,-140 L 780,-100" stroke="#0000b2" stroke-width="2.8" fill="none"/>
<path d="M 820,-140 L 820,-100" stroke="#0000b2" stroke-width="2.8" fill="none"/>
<path d="M 840,320 L 820,320 L 820,360 L 840,360" stroke="#0000b2" stroke-width="2.8" fill="none"/>
<path d="M 820,360 L 820,400" stroke="#0000b2" stroke-width="2.8" fill="none"/>
<path d="M 700,-140 L 700,-100" stroke="#0000b2" stroke-width="2.8" fill="none"/>
<path d="M 500,94 L 500,100" stroke="#000000" stroke-width="2.8" fill="none"/>
<path d="M 780,394 L 780,400" stroke="#000000" stroke-width="2.8" fill="none"/>
<path d="M 1080,120 L 1090,120 L 1100,120" stroke="#000000" stroke-width="2.8" fill="none"/>
<path d="M 1080,140 L 1090,140" stroke="#000000" stroke-width="2.8" fill="none"/>
<path d="M 1080,160 L 1090,160" stroke="#000000" stroke-width="2.8" fill="none"/>
<path d="M 1080,180 L 1090,180" stroke="#000000" stroke-width="2.8" fill="none"/>
<g>
<circle cx="1020.0" cy="260.0" r="4.0" stroke="#0000b2" stroke-width="2.8" fill="#0000b2" />
<circle cx="820.0" cy="360.0" r="4.0" stroke="#0000b2" stroke-width="2.8" fill="#0000b2" />
<circle cx="1000.0" cy="240.0" r="4.0" stroke="#0000b2" stroke-width="2.8" fill="#0000b2" />
<circle cx="500.0" cy="340.0" r="4.0" stroke="#0000b2" stroke-width="2.8" fill="#0000b2" />
<circle cx="1040.0" cy="280.0" r="4.0" stroke="#0000b2" stroke-width="2.8" fill="#0000b2" />
<circle cx="500.0" cy="280.0" r="4.0" stroke="#0000b2" stroke-width="2.8" fill="#0000b2" />
<circle cx="980.0" cy="220.0" r="4.0" stroke="#0000b2" stroke-width="2.8" fill="#0000b2" />
</g>
<g>
<path d="M 840,120 L 940,120 L 940,380 L 840,380 Z" stroke="#ffffb4" stroke-width="0.0" fill="#ffffb4" fill-opacity="0.7843137254901961"/>
<path d="M 840,120 L 940,120 L 940,380 L 840,380 Z" stroke="#000000" stroke-width="2.8" fill="none"/>
<text text-anchor="middle" x="890.0" y="116.0" fill="#000000" style="font-size:24">74157</text>
<text text-anchor="start" x="844.0" y="146.75" fill="#808080" style="font-size:18">A1</text>
<text text-anchor="start" x="844.0" y="166.75" fill="#808080" style="font-size:18">A2</text>
<text text-anchor="start" x="844.0" y="186.75" fill="#808080" style="font-size:18">A3</text>
<text text-anchor="start" x="844.0" y="206.75" fill="#808080" style="font-size:18">A4</text>
<text text-anchor="start" x="844.0" y="226.75" fill="#808080" style="font-size:18">B1</text>
<text text-anchor="start" x="844.0" y="246.75" fill="#808080" style="font-size:18">B2</text>
<text text-anchor="start" x="844.0" y="266.75" fill="#808080" style="font-size:18">B3</text>
<text text-anchor="start" x="844.0" y="286.75" fill="#808080" style="font-size:18">B4</text>
<text text-anchor="start" x="844.0" y="306.75" fill="#808080" style="font-size:18">S</text>
<text text-anchor="start" x="844.0" y="326.75" fill="#808080" style="font-size:18">G</text>
<text text-anchor="start" x="844.0" y="346.75" fill="#808080" style="font-size:18">VCC</text>
<text text-anchor="start" x="844.0" y="366.75" fill="#808080" style="font-size:18">GND</text>
<text text-anchor="end" x="936.0" y="226.75" fill="#808080" style="font-size:18">Y1</text>
<text text-anchor="end" x="936.0" y="246.75" fill="#808080" style="font-size:18">Y2</text>
<text text-anchor="end" x="936.0" y="266.75" fill="#808080" style="font-size:18">Y3</text>
<text text-anchor="end" x="936.0" y="286.75" fill="#808080" style="font-size:18">Y4</text>
<circle cx="840.0" cy="300.0" r="2.0" stroke="#0000b2" stroke-width="2.8" fill="#0000b2" />
<circle cx="840.0" cy="140.0" r="2.0" stroke="#0000b2" stroke-width="2.8" fill="#0000b2" />
<circle cx="840.0" cy="160.0" r="2.0" stroke="#0000b2" stroke-width="2.8" fill="#0000b2" />
<circle cx="840.0" cy="180.0" r="2.0" stroke="#0000b2" stroke-width="2.8" fill="#0000b2" />
<circle cx="840.0" cy="200.0" r="2.0" stroke="#0000b2" stroke-width="2.8" fill="#0000b2" />
<circle cx="840.0" cy="220.0" r="2.0" stroke="#0000b2" stroke-width="2.8" fill="#0000b2" />
<circle cx="840.0" cy="240.0" r="2.0" stroke="#0000b2" stroke-width="2.8" fill="#0000b2" />
<circle cx="840.0" cy="260.0" r="2.0" stroke="#0000b2" stroke-width="2.8" fill="#0000b2" />
<circle cx="840.0" cy="280.0" r="2.0" stroke="#0000b2" stroke-width="2.8" fill="#0000b2" />
<circle cx="840.0" cy="320.0" r="2.0" stroke="#0000b2" stroke-width="2.8" fill="#0000b2" />
<circle cx="840.0" cy="340.0" r="2.0" stroke="#0000b2" stroke-width="2.8" fill="#0000b2" />
<circle cx="840.0" cy="360.0" r="2.0" stroke="#0000b2" stroke-width="2.8" fill="#0000b2" />
<circle cx="940.0" cy="220.0" r="2.0" stroke="#b20000" stroke-width="2.8" fill="#b20000" />
<circle cx="940.0" cy="240.0" r="2.0" stroke="#b20000" stroke-width="2.8" fill="#b20000" />
<circle cx="940.0" cy="260.0" r="2.0" stroke="#b20000" stroke-width="2.8" fill="#b20000" />
<circle cx="940.0" cy="280.0" r="2.0" stroke="#b20000" stroke-width="2.8" fill="#b20000" />
</g>
<g>
<path d="M 520,120 L 620,120 L 620,380 L 520,380 Z" stroke="#ffffb4" stroke-width="0.0" fill="#ffffb4" fill-opacity="0.7843137254901961"/>
<path d="M 520,120 L 620,120 L 620,380 L 520,380 Z" stroke="#000000" stroke-width="2.8" fill="none"/>
<text text-anchor="middle" x="570.0" y="116.0" fill="#000000" style="font-size:24">74173</text>
<text text-anchor="start" x="524.0" y="146.75" fill="#808080" style="font-size:18">VCC</text>
<text text-anchor="start" x="524.0" y="166.75" fill="#808080" style="font-size:18">GND</text>
<text text-anchor="start" x="524.0" y="186.75" fill="#808080" style="font-size:18">D0</text>
<text text-anchor="start" x="524.0" y="206.75" fill="#808080" style="font-size:18">D1</text>
<text text-anchor="start" x="524.0" y="226.75" fill="#808080" style="font-size:18">D2</text>
<text text-anchor="start" x="524.0" y="246.75" fill="#808080" style="font-size:18">D3</text>
<text text-anchor="start" x="524.0" y="266.75" fill="#808080" style="font-size:18">DE1</text>
<text text-anchor="start" x="524.0" y="286.75" fill="#808080" style="font-size:18">DE2</text>
<text text-anchor="start" x="524.0" y="306.75" fill="#808080" style="font-size:18">CLK</text>
<text text-anchor="start" x="524.0" y="326.75" fill="#808080" style="font-size:18">RES</text>
<text text-anchor="start" x="524.0" y="346.75" fill="#808080" style="font-size:18">OE1</text>
<text text-anchor="start" x="524.0" y="366.75" fill="#808080" style="font-size:18">OE2</text>
<text text-anchor="end" x="616.0" y="226.75" fill="#808080" style="font-size:18">Q0</text>
<text text-anchor="end" x="616.0" y="246.75" fill="#808080" style="font-size:18">Q1</text>
<text text-anchor="end" x="616.0" y="266.75" fill="#808080" style="font-size:18">Q2</text>
<text text-anchor="end" x="616.0" y="286.75" fill="#808080" style="font-size:18">Q3</text>
<circle cx="520.0" cy="180.0" r="2.0" stroke="#0000b2" stroke-width="2.8" fill="#0000b2" />
<circle cx="520.0" cy="140.0" r="2.0" stroke="#0000b2" stroke-width="2.8" fill="#0000b2" />
<circle cx="520.0" cy="160.0" r="2.0" stroke="#0000b2" stroke-width="2.8" fill="#0000b2" />
<circle cx="520.0" cy="320.0" r="2.0" stroke="#0000b2" stroke-width="2.8" fill="#0000b2" />
<circle cx="520.0" cy="200.0" r="2.0" stroke="#0000b2" stroke-width="2.8" fill="#0000b2" />
<circle cx="520.0" cy="220.0" r="2.0" stroke="#0000b2" stroke-width="2.8" fill="#0000b2" />
<circle cx="520.0" cy="240.0" r="2.0" stroke="#0000b2" stroke-width="2.8" fill="#0000b2" />
<circle cx="520.0" cy="300.0" r="2.0" stroke="#0000b2" stroke-width="2.8" fill="#0000b2" />
<circle cx="520.0" cy="260.0" r="2.0" stroke="#0000b2" stroke-width="2.8" fill="#0000b2" />
<circle cx="520.0" cy="280.0" r="2.0" stroke="#0000b2" stroke-width="2.8" fill="#0000b2" />
<circle cx="520.0" cy="340.0" r="2.0" stroke="#0000b2" stroke-width="2.8" fill="#0000b2" />
<circle cx="520.0" cy="360.0" r="2.0" stroke="#0000b2" stroke-width="2.8" fill="#0000b2" />
<circle cx="620.0" cy="220.0" r="2.0" stroke="#b20000" stroke-width="2.8" fill="#b20000" />
<circle cx="620.0" cy="240.0" r="2.0" stroke="#b20000" stroke-width="2.8" fill="#b20000" />
<circle cx="620.0" cy="260.0" r="2.0" stroke="#b20000" stroke-width="2.8" fill="#b20000" />
<circle cx="620.0" cy="280.0" r="2.0" stroke="#b20000" stroke-width="2.8" fill="#b20000" />
</g>
<g>
<circle cx="1200.0" cy="376.0" r="9.0" stroke="#000000" stroke-width="2.8" fill="none" />
<circle cx="1200.0" cy="376.0" r="15.0" stroke="#000000" stroke-width="2.8" fill="none" />
<text text-anchor="end" x="1200.0" y="414.0" fill="#000000" style="font-size:24" transform="rotate(-90,1200.0,405.0)" ><tspan style="font-style:italic">A<tspan style="font-size:80%;baseline-shift:sub">0</tspan></tspan></text>
<circle cx="1200.0" cy="360.0" r="2.0" stroke="#0000b2" stroke-width="2.8" fill="#0000b2" />
</g>
<g>
<circle cx="1160.0" cy="376.0" r="9.0" stroke="#000000" stroke-width="2.8" fill="none" />
<circle cx="1160.0" cy="376.0" r="15.0" stroke="#000000" stroke-width="2.8" fill="none" />
<text text-anchor="end" x="1160.0" y="414.0" fill="#000000" style="font-size:24" transform="rotate(-90,1160.0,405.0)" ><tspan style="font-style:italic">A<tspan style="font-size:80%;baseline-shift:sub">1</tspan></tspan></text>
<circle cx="1160.0" cy="360.0" r="2.0" stroke="#0000b2" stroke-width="2.8" fill="#0000b2" />
</g>
<g>
<circle cx="1120.0" cy="376.0" r="9.0" stroke="#000000" stroke-width="2.8" fill="none" />
<circle cx="1120.0" cy="376.0" r="15.0" stroke="#000000" stroke-width="2.8" fill="none" />
<text text-anchor="end" x="1120.0" y="414.0" fill="#000000" style="font-size:24" transform="rotate(-90,1120.0,405.0)" ><tspan style="font-style:italic">A<tspan style="font-size:80%;baseline-shift:sub">2</tspan></tspan></text>
<circle cx="1120.0" cy="360.0" r="2.0" stroke="#0000b2" stroke-width="2.8" fill="#0000b2" />
</g>
<g>
<circle cx="1080.0" cy="376.0" r="9.0" stroke="#000000" stroke-width="2.8" fill="none" />
<circle cx="1080.0" cy="376.0" r="15.0" stroke="#000000" stroke-width="2.8" fill="none" />
<text text-anchor="end" x="1080.0" y="414.0" fill="#000000" style="font-size:24" transform="rotate(-90,1080.0,405.0)" ><tspan style="font-style:italic">A<tspan style="font-size:80%;baseline-shift:sub">3</tspan></tspan></text>
<circle cx="1080.0" cy="360.0" r="2.0" stroke="#0000b2" stroke-width="2.8" fill="#0000b2" />
</g>
<g>
<path d="M 1171,75 L 1141,75 L 1141,45 L 1171,45 Z" stroke="#000000" stroke-width="2.8" fill="none"/>
<circle cx="1156.0" cy="60.0" r="9.0" stroke="#000000" stroke-width="2.8" fill="none" />
<text text-anchor="start" x="1185.0" y="69.0" fill="#000000" style="font-size:24"><tspan style="font-style:italic">BUS<tspan style="font-size:80%;baseline-shift:sub">3</tspan></tspan></text>
<circle cx="1140.0" cy="60.0" r="2.0" stroke="#b20000" stroke-width="2.8" fill="#b20000" />
</g>
<g>
<path d="M 1171,35 L 1141,35 L 1141,5 L 1171,5 Z" stroke="#000000" stroke-width="2.8" fill="none"/>
<circle cx="1156.0" cy="20.0" r="9.0" stroke="#000000" stroke-width="2.8" fill="none" />
<text text-anchor="start" x="1185.0" y="29.0" fill="#000000" style="font-size:24"><tspan style="font-style:italic">BUS<tspan style="font-size:80%;baseline-shift:sub">2</tspan></tspan></text>
<circle cx="1140.0" cy="20.0" r="2.0" stroke="#b20000" stroke-width="2.8" fill="#b20000" />
</g>
<g>
<path d="M 1171,-5 L 1141,-5 L 1141,-35 L 1171,-35 Z" stroke="#000000" stroke-width="2.8" fill="none"/>
<circle cx="1156.0" cy="-20.0" r="9.0" stroke="#000000" stroke-width="2.8" fill="none" />
<text text-anchor="start" x="1185.0" y="-11.0" fill="#000000" style="font-size:24"><tspan style="font-style:italic">BUS<tspan style="font-size:80%;baseline-shift:sub">1</tspan></tspan></text>
<circle cx="1140.0" cy="-20.0" r="2.0" stroke="#b20000" stroke-width="2.8" fill="#b20000" />
</g>
<g>
<path d="M 1171,-45 L 1141,-45 L 1141,-75 L 1171,-75 Z" stroke="#000000" stroke-width="2.8" fill="none"/>
<circle cx="1156.0" cy="-60.0" r="9.0" stroke="#000000" stroke-width="2.8" fill="none" />
<text text-anchor="start" x="1185.0" y="-51.0" fill="#000000" style="font-size:24"><tspan style="font-style:italic">BUS<tspan style="font-size:80%;baseline-shift:sub">0</tspan></tspan></text>
<circle cx="1140.0" cy="-60.0" r="2.0" stroke="#b20000" stroke-width="2.8" fill="#b20000" />
</g>
<g>
<circle cx="460.0" cy="380.0" r="2.0" stroke="#b20000" stroke-width="2.8" fill="#b20000" />
</g>
<g>
<circle cx="460.0" cy="100.0" r="2.0" stroke="#b20000" stroke-width="2.8" fill="#b20000" />
</g>
<g>
<path d="M 490,104 L 500,91 L 510,104" stroke="#000000" stroke-width="2.8" fill="none"/>
<circle cx="500.0" cy="100.0" r="2.0" stroke="#b20000" stroke-width="2.8" fill="#b20000" />
</g>
<g>
<circle cx="820.0" cy="400.0" r="2.0" stroke="#b20000" stroke-width="2.8" fill="#b20000" />
</g>
<g>
<path d="M 770,404 L 780,391 L 790,404" stroke="#000000" stroke-width="2.8" fill="none"/>
<circle cx="780.0" cy="400.0" r="2.0" stroke="#b20000" stroke-width="2.8" fill="#b20000" />
</g>
<g>
<path d="M 249,265 L 279,265 L 279,295 L 249,295 Z" stroke="#000000" stroke-width="2.8" fill="none"/>
<circle cx="264.0" cy="280.0" r="9.0" stroke="#000000" stroke-width="2.8" fill="none" />
<text text-anchor="end" x="235.0" y="289.0" fill="#000000" style="font-size:24"><tspan style="font-style:italic">¬MI</tspan></text>
<circle cx="280.0" cy="280.0" r="2.0" stroke="#b20000" stroke-width="2.8" fill="#b20000" />
</g>
<g>
<path d="M 249,445 L 279,445 L 279,475 L 249,475 Z" stroke="#000000" stroke-width="2.8" fill="none"/>
<circle cx="264.0" cy="460.0" r="9.0" stroke="#000000" stroke-width="2.8" fill="none" />
<text text-anchor="end" x="235.0" y="469.0" fill="#000000" style="font-size:24"><tspan style="font-style:italic">CLR</tspan></text>
<circle cx="280.0" cy="460.0" r="2.0" stroke="#b20000" stroke-width="2.8" fill="#b20000" />
</g>
<g>
<path d="M 835,-171 L 835,-141 L 805,-141 L 805,-171 Z" stroke="#000000" stroke-width="2.8" fill="none"/>
<circle cx="820.0" cy="-156.0" r="9.0" stroke="#000000" stroke-width="2.8" fill="none" />
<text text-anchor="start" x="820.0" y="-176.0" fill="#000000" style="font-size:24" transform="rotate(-90,820.0,-185.0)" ><tspan style="font-style:italic">PA<tspan style="font-size:80%;baseline-shift:sub">0</tspan></tspan></text>
<circle cx="820.0" cy="-140.0" r="2.0" stroke="#b20000" stroke-width="2.8" fill="#b20000" />
</g>
<g>
<path d="M 795,-171 L 795,-141 L 765,-141 L 765,-171 Z" stroke="#000000" stroke-width="2.8" fill="none"/>
<circle cx="780.0" cy="-156.0" r="9.0" stroke="#000000" stroke-width="2.8" fill="none" />
<text text-anchor="start" x="780.0" y="-176.0" fill="#000000" style="font-size:24" transform="rotate(-90,780.0,-185.0)" ><tspan style="font-style:italic">PA<tspan style="font-size:80%;baseline-shift:sub">1</tspan></tspan></text>
<circle cx="780.0" cy="-140.0" r="2.0" stroke="#b20000" stroke-width="2.8" fill="#b20000" />
</g>
<g>
<path d="M 755,-171 L 755,-141 L 725,-141 L 725,-171 Z" stroke="#000000" stroke-width="2.8" fill="none"/>
<circle cx="740.0" cy="-156.0" r="9.0" stroke="#000000" stroke-width="2.8" fill="none" />
<text text-anchor="start" x="740.0" y="-176.0" fill="#000000" style="font-size:24" transform="rotate(-90,740.0,-185.0)" ><tspan style="font-style:italic">PA<tspan style="font-size:80%;baseline-shift:sub">2</tspan></tspan></text>
<circle cx="740.0" cy="-140.0" r="2.0" stroke="#b20000" stroke-width="2.8" fill="#b20000" />
</g>
<g>
<path d="M 715,-171 L 715,-141 L 685,-141 L 685,-171 Z" stroke="#000000" stroke-width="2.8" fill="none"/>
<circle cx="700.0" cy="-156.0" r="9.0" stroke="#000000" stroke-width="2.8" fill="none" />
<text text-anchor="start" x="700.0" y="-176.0" fill="#000000" style="font-size:24" transform="rotate(-90,700.0,-185.0)" ><tspan style="font-style:italic">PA<tspan style="font-size:80%;baseline-shift:sub">3</tspan></tspan></text>
<circle cx="700.0" cy="-140.0" r="2.0" stroke="#b20000" stroke-width="2.8" fill="#b20000" />
</g>
<g>
<path d="M 249,405 L 279,405 L 279,435 L 249,435 Z" stroke="#000000" stroke-width="2.8" fill="none"/>
<circle cx="264.0" cy="420.0" r="9.0" stroke="#000000" stroke-width="2.8" fill="none" />
<text text-anchor="end" x="235.0" y="429.0" fill="#000000" style="font-size:24"><tspan style="font-style:italic">¬PROG</tspan></text>
<circle cx="280.0" cy="420.0" r="2.0" stroke="#b20000" stroke-width="2.8" fill="#b20000" />
</g>
<g>
<text text-anchor="end" x="1078.0" y="117.0" fill="#808080" style="font-size:12">3</text>
<text text-anchor="end" x="1078.0" y="137.0" fill="#808080" style="font-size:12">2</text>
<text text-anchor="end" x="1078.0" y="157.0" fill="#808080" style="font-size:12">1</text>
<text text-anchor="end" x="1078.0" y="177.0" fill="#808080" style="font-size:12">0</text>
<text text-anchor="start" x="1102.0" y="117.0" fill="#808080" style="font-size:12">0-3</text>
<path d="M 1088,118 L 1092,118 L 1092,182 L 1088,182 Z" stroke="#000000" stroke-width="2.8" fill="#000000" fill-opacity="1.0"/>
<circle cx="1080.0" cy="120.0" r="2.0" stroke="#0000b2" stroke-width="2.8" fill="#0000b2" />
<circle cx="1080.0" cy="140.0" r="2.0" stroke="#0000b2" stroke-width="2.8" fill="#0000b2" />
<circle cx="1080.0" cy="160.0" r="2.0" stroke="#0000b2" stroke-width="2.8" fill="#0000b2" />
<circle cx="1080.0" cy="180.0" r="2.0" stroke="#0000b2" stroke-width="2.8" fill="#0000b2" />
<circle cx="1100.0" cy="120.0" r="2.0" stroke="#b20000" stroke-width="2.8" fill="#b20000" />
</g>
<g>
<circle cx="264.0" cy="160.0" r="9.0" stroke="#000000" stroke-width="2.8" fill="none" />
<circle cx="264.0" cy="160.0" r="15.0" stroke="#000000" stroke-width="2.8" fill="none" />
<text text-anchor="end" x="235.0" y="169.0" fill="#000000" style="font-size:24"><tspan style="font-style:italic">DBG</tspan></text>
<circle cx="280.0" cy="160.0" r="2.0" stroke="#0000b2" stroke-width="2.8" fill="#0000b2" />
</g>
<g>
<path d="M 700,-100 L 692,-86 L 708,-86 Z" stroke="#000000" stroke-width="2.8" fill="none"/>
<text text-anchor="end" x="700.0" y="-74.25" fill="#808080" style="font-size:18" transform="rotate(-90,700.0,-81.0)" >PA<tspan style="font-size:80%;baseline-shift:sub">3</tspan></text>
<circle cx="700.0" cy="-100.0" r="2.0" stroke="#0000b2" stroke-width="2.8" fill="#0000b2" />
</g>
<g>
<path d="M 740,-100 L 732,-86 L 748,-86 Z" stroke="#000000" stroke-width="2.8" fill="none"/>
<text text-anchor="end" x="740.0" y="-74.25" fill="#808080" style="font-size:18" transform="rotate(-90,740.0,-81.0)" >PA<tspan style="font-size:80%;baseline-shift:sub">2</tspan></text>
<circle cx="740.0" cy="-100.0" r="2.0" stroke="#0000b2" stroke-width="2.8" fill="#0000b2" />
</g>
<g>
<path d="M 780,-100 L 772,-86 L 788,-86 Z" stroke="#000000" stroke-width="2.8" fill="none"/>
<text text-anchor="end" x="780.0" y="-74.25" fill="#808080" style="font-size:18" transform="rotate(-90,780.0,-81.0)" >PA<tspan style="font-size:80%;baseline-shift:sub">1</tspan></text>
<circle cx="780.0" cy="-100.0" r="2.0" stroke="#0000b2" stroke-width="2.8" fill="#0000b2" />
</g>
<g>
<path d="M 820,-100 L 812,-86 L 828,-86 Z" stroke="#000000" stroke-width="2.8" fill="none"/>
<text text-anchor="end" x="820.0" y="-74.25" fill="#808080" style="font-size:18" transform="rotate(-90,820.0,-81.0)" >PA<tspan style="font-size:80%;baseline-shift:sub">0</tspan></text>
<circle cx="820.0" cy="-100.0" r="2.0" stroke="#0000b2" stroke-width="2.8" fill="#0000b2" />
</g>
<g>
<path d="M 820,80 L 828,66 L 812,66 Z" stroke="#000000" stroke-width="2.8" fill="none"/>
<text text-anchor="start" x="820.0" y="67.75" fill="#808080" style="font-size:18" transform="rotate(-90,820.0,61.0)" >PA<tspan style="font-size:80%;baseline-shift:sub">3</tspan></text>
<circle cx="820.0" cy="80.0" r="2.0" stroke="#0000b2" stroke-width="2.8" fill="#0000b2" />
</g>
<g>
<path d="M 780,80 L 788,66 L 772,66 Z" stroke="#000000" stroke-width="2.8" fill="none"/>
<text text-anchor="start" x="780.0" y="67.75" fill="#808080" style="font-size:18" transform="rotate(-90,780.0,61.0)" >PA<tspan style="font-size:80%;baseline-shift:sub">2</tspan></text>
<circle cx="780.0" cy="80.0" r="2.0" stroke="#0000b2" stroke-width="2.8" fill="#0000b2" />
</g>
<g>
<path d="M 740,80 L 748,66 L 732,66 Z" stroke="#000000" stroke-width="2.8" fill="none"/>
<text text-anchor="start" x="740.0" y="67.75" fill="#808080" style="font-size:18" transform="rotate(-90,740.0,61.0)" >PA<tspan style="font-size:80%;baseline-shift:sub">1</tspan></text>
<circle cx="740.0" cy="80.0" r="2.0" stroke="#0000b2" stroke-width="2.8" fill="#0000b2" />
</g>
<g>
<path d="M 700,80 L 708,66 L 692,66 Z" stroke="#000000" stroke-width="2.8" fill="none"/>
<text text-anchor="start" x="700.0" y="67.75" fill="#808080" style="font-size:18" transform="rotate(-90,700.0,61.0)" >PA<tspan style="font-size:80%;baseline-shift:sub">0</tspan></text>
<circle cx="700.0" cy="80.0" r="2.0" stroke="#0000b2" stroke-width="2.8" fill="#0000b2" />
</g>
<g>
<path d="M 500,180 L 486,172 L 486,188 Z" stroke="#000000" stroke-width="2.8" fill="none"/>
<text text-anchor="end" x="481.0" y="186.75" fill="#808080" style="font-size:18">BUS<tspan style="font-size:80%;baseline-shift:sub">3</tspan></text>
<circle cx="500.0" cy="180.0" r="2.0" stroke="#0000b2" stroke-width="2.8" fill="#0000b2" />
</g>
<g>
<path d="M 500,200 L 486,192 L 486,208 Z" stroke="#000000" stroke-width="2.8" fill="none"/>
<text text-anchor="end" x="481.0" y="206.75" fill="#808080" style="font-size:18">BUS<tspan style="font-size:80%;baseline-shift:sub">2</tspan></text>
<circle cx="500.0" cy="200.0" r="2.0" stroke="#0000b2" stroke-width="2.8" fill="#0000b2" />
</g>
<g>
<path d="M 500,220 L 486,212 L 486,228 Z" stroke="#000000" stroke-width="2.8" fill="none"/>
<text text-anchor="end" x="481.0" y="226.75" fill="#808080" style="font-size:18">BUS<tspan style="font-size:80%;baseline-shift:sub">1</tspan></text>
<circle cx="500.0" cy="220.0" r="2.0" stroke="#0000b2" stroke-width="2.8" fill="#0000b2" />
</g>
<g>
<path d="M 500,240 L 486,232 L 486,248 Z" stroke="#000000" stroke-width="2.8" fill="none"/>
<text text-anchor="end" x="481.0" y="246.75" fill="#808080" style="font-size:18">BUS<tspan style="font-size:80%;baseline-shift:sub">0</tspan></text>
<circle cx="500.0" cy="240.0" r="2.0" stroke="#0000b2" stroke-width="2.8" fill="#0000b2" />
</g>
<g>
<path d="M 1120,60 L 1106,52 L 1106,68 Z" stroke="#000000" stroke-width="2.8" fill="none"/>
<text text-anchor="end" x="1101.0" y="66.75" fill="#808080" style="font-size:18">BUS<tspan style="font-size:80%;baseline-shift:sub">3</tspan></text>
<circle cx="1120.0" cy="60.0" r="2.0" stroke="#0000b2" stroke-width="2.8" fill="#0000b2" />
</g>
<g>
<path d="M 1120,20 L 1106,12 L 1106,28 Z" stroke="#000000" stroke-width="2.8" fill="none"/>
<text text-anchor="end" x="1101.0" y="26.75" fill="#808080" style="font-size:18">BUS<tspan style="font-size:80%;baseline-shift:sub">2</tspan></text>
<circle cx="1120.0" cy="20.0" r="2.0" stroke="#0000b2" stroke-width="2.8" fill="#0000b2" />
</g>
<g>
<path d="M 1120,-20 L 1106,-28 L 1106,-12 Z" stroke="#000000" stroke-width="2.8" fill="none"/>
<text text-anchor="end" x="1101.0" y="-13.25" fill="#808080" style="font-size:18">BUS<tspan style="font-size:80%;baseline-shift:sub">1</tspan></text>
<circle cx="1120.0" cy="-20.0" r="2.0" stroke="#0000b2" stroke-width="2.8" fill="#0000b2" />
</g>
<g>
<path d="M 1120,-60 L 1106,-68 L 1106,-52 Z" stroke="#000000" stroke-width="2.8" fill="none"/>
<text text-anchor="end" x="1101.0" y="-53.25" fill="#808080" style="font-size:18">BUS<tspan style="font-size:80%;baseline-shift:sub">0</tspan></text>
<circle cx="1120.0" cy="-60.0" r="2.0" stroke="#0000b2" stroke-width="2.8" fill="#0000b2" />
</g>
<g>
<path d="M 1140,120 L 1154,128 L 1154,112 Z" stroke="#000000" stroke-width="2.8" fill="none"/>
<text text-anchor="start" x="1159.0" y="126.75" fill="#808080" style="font-size:18">DBG</text>
<circle cx="1140.0" cy="120.0" r="2.0" stroke="#0000b2" stroke-width="2.8" fill="#0000b2" />
</g>
<g>
<path d="M 300,160 L 314,168 L 314,152 Z" stroke="#000000" stroke-width="2.8" fill="none"/>
<text text-anchor="start" x="319.0" y="166.75" fill="#808080" style="font-size:18">DBG</text>
<circle cx="300.0" cy="160.0" r="2.0" stroke="#0000b2" stroke-width="2.8" fill="#0000b2" />
</g>
<g>
<path d="M 249,485 L 279,485 L 279,515 L 249,515 Z" stroke="#000000" stroke-width="2.8" fill="none"/>
<path d="M 255,505 L 260,505 L 260,495 L 265,495 L 265,505 L 270,505 L 270,495 L 275,495" stroke="#000000" stroke-width="1.4" fill="none"/>
<text text-anchor="end" x="235.0" y="509.0" fill="#000000" style="font-size:24">CLK</text>
<circle cx="280.0" cy="500.0" r="2.0" stroke="#b20000" stroke-width="2.8" fill="#b20000" />
</g>
</g>
</svg>